<svg width="50" height="51" viewBox="0 0 50 51" fill="none" xmlns="http://www.w3.org/2000/svg">
<path d="M6.25 31.9661C6.25 37.6005 11.1094 43.3818 19.4438 44.3318C18.5468 43.2245 17.791 42.01 17.1937 40.7161C12.1312 39.2568 9.375 35.4911 9.375 31.9661V30.4036C9.375 29.9892 9.53962 29.5918 9.83265 29.2988C10.1257 29.0058 10.5231 28.8411 10.9375 28.8411H16.2719C16.5823 27.7495 16.9917 26.7078 17.5 25.7161H10.9375C9.6943 25.7161 8.50201 26.21 7.62294 27.0891C6.74386 27.9681 6.25 29.1604 6.25 30.4036V31.9661ZM30.4688 13.9974C30.4667 14.8911 30.3375 15.7453 30.0813 16.5599C28.5879 16.7988 27.1326 17.2338 25.7531 17.8536C26.682 16.9167 27.2408 15.6755 27.3266 14.359C27.4124 13.0424 27.0193 11.7392 26.2199 10.6897C25.4204 9.64015 24.2685 8.91499 22.9765 8.64791C21.6845 8.38083 20.3394 8.58983 19.1894 9.23639C18.0393 9.88295 17.1618 10.9235 16.7185 12.1661C16.2753 13.4088 16.2962 14.7698 16.7775 15.9982C17.2587 17.2267 18.1678 18.2397 19.3372 18.8506C20.5066 19.4615 21.8574 19.6291 23.1406 19.3224C21.8902 20.1729 20.7575 21.1848 19.7719 22.3318C18.2105 21.9384 16.791 21.1145 15.675 19.9539C14.559 18.7932 13.7913 17.3425 13.4595 15.7669C13.1277 14.1913 13.2451 12.5542 13.7982 11.042C14.3513 9.52988 15.318 8.20345 16.5881 7.21384C17.8583 6.22422 19.3808 5.6112 20.9823 5.44459C22.5838 5.27798 24.1999 5.56448 25.6466 6.27146C27.0932 6.97845 28.3122 8.07749 29.1648 9.44341C30.0173 10.8093 30.4691 12.3872 30.4688 13.9974ZM46.875 33.5286C46.875 35.3753 46.5113 37.204 45.8046 38.9101C45.0979 40.6163 44.062 42.1665 42.7562 43.4723C41.4504 44.7781 39.9001 45.814 38.194 46.5207C36.4878 47.2274 34.6592 47.5911 32.8125 47.5911C30.9658 47.5911 29.1372 47.2274 27.431 46.5207C25.7249 45.814 24.1746 44.7781 22.8688 43.4723C21.563 42.1665 20.5272 40.6163 19.8204 38.9101C19.1137 37.204 18.75 35.3753 18.75 33.5286C18.75 29.799 20.2316 26.2222 22.8688 23.5849C25.506 20.9477 29.0829 19.4661 32.8125 19.4661C36.5421 19.4661 40.119 20.9477 42.7562 23.5849C45.3934 26.2222 46.875 29.799 46.875 33.5286ZM32.8125 25.7161C32.3981 25.7161 32.0007 25.8808 31.7076 26.1738C31.4146 26.4668 31.25 26.8642 31.25 27.2786V33.5286C31.25 33.943 31.4146 34.3405 31.7076 34.6335C32.0007 34.9265 32.3981 35.0911 32.8125 35.0911H37.5C37.9144 35.0911 38.3118 34.9265 38.6049 34.6335C38.8979 34.3405 39.0625 33.943 39.0625 33.5286C39.0625 33.1142 38.8979 32.7168 38.6049 32.4238C38.3118 32.1308 37.9144 31.9661 37.5 31.9661H34.375V27.2786C34.375 26.8642 34.2104 26.4668 33.9174 26.1738C33.6243 25.8808 33.2269 25.7161 32.8125 25.7161Z" fill="white"/>
</svg>
