<svg width="24" height="18" viewBox="0 0 24 18" fill="none" xmlns="http://www.w3.org/2000/svg">
<path d="M7.44792 12.8646L19.7396 0.572916C20.1215 0.190971 20.6076 0 21.1979 0C21.7882 0 22.2743 0.190971 22.6562 0.572916C23.0382 0.95486 23.2292 1.44097 23.2292 2.03125C23.2292 2.62153 23.0382 3.10764 22.6562 3.48958L8.90625 17.2396C8.48958 17.6562 8.00347 17.8646 7.44792 17.8646C6.89236 17.8646 6.40625 17.6562 5.98958 17.2396L0.572916 11.8229C0.190971 11.441 0 10.9549 0 10.3646C0 9.7743 0.190971 9.28819 0.572916 8.90625C0.95486 8.5243 1.44097 8.33333 2.03125 8.33333C2.62153 8.33333 3.10764 8.5243 3.48958 8.90625L7.44792 12.8646Z" fill="black"/>
</svg>
