<svg width="51" height="51" viewBox="0 0 51 51" fill="none" xmlns="http://www.w3.org/2000/svg">
<path d="M25.6087 6.72543C26.2649 5.10043 28.0931 3.35043 30.4399 4.00355C32.2837 4.51605 33.4806 5.62855 34.1681 7.11605C34.8056 8.50043 34.9618 10.1317 34.9931 11.6848C35.0243 13.3567 34.6743 15.3598 34.2649 17.1161C34.0815 17.8919 33.8783 18.663 33.6556 19.4286H37.9837C38.9548 19.4286 39.9125 19.6549 40.7808 20.0896C41.6492 20.5243 42.4043 21.1553 42.9863 21.9326C43.5684 22.7099 43.9612 23.6122 44.1338 24.5678C44.3064 25.5234 44.2539 26.5061 43.9806 27.4379L39.7181 41.9567C39.4256 42.953 38.9375 43.881 38.2822 44.6865C37.627 45.492 36.8177 46.1588 35.9018 46.6479C34.9859 47.137 33.9816 47.4386 32.9478 47.5351C31.9139 47.6315 30.8712 47.521 29.8806 47.2098L13.1431 41.9536C12.2376 41.6691 11.4088 41.1822 10.7195 40.5298C10.0302 39.8773 9.49859 39.0765 9.16494 38.1879L7.53994 33.8629C7.02279 32.4865 7.0075 30.9718 7.49676 29.5851C7.98602 28.1985 8.94849 27.0288 10.2149 26.2817L16.0649 22.8317L16.1149 22.7942C16.2228 22.7143 16.3281 22.6309 16.4306 22.5442C16.7212 22.2942 17.1587 21.8879 17.6993 21.2848C18.7743 20.0692 20.2524 18.0473 21.7368 14.8942C22.3774 13.5317 22.9149 12.4598 23.4024 11.4879C24.1931 9.91605 24.8556 8.60043 25.6087 6.72543ZM17.7462 25.4661L17.6931 25.4973L11.8024 28.9723C11.1692 29.3459 10.688 29.9307 10.4433 30.624C10.1987 31.3173 10.2064 32.0747 10.4649 32.7629L12.0899 37.0879C12.2567 37.5326 12.5227 37.9335 12.8676 38.26C13.2125 38.5865 13.6274 38.8301 14.0806 38.9723L30.8118 44.2285C31.4063 44.4159 32.0322 44.4827 32.6528 44.4253C33.2735 44.3678 33.8764 44.1871 34.4264 43.8938C34.9764 43.6004 35.4623 43.2004 35.8558 42.717C36.2493 42.2336 36.5424 41.6766 36.7181 41.0786L40.9774 26.5598C41.1144 26.0937 41.1409 25.602 41.0546 25.1239C40.9684 24.6458 40.7719 24.1943 40.4807 23.8054C40.1895 23.4165 39.8116 23.1009 39.377 22.8836C38.9425 22.6663 38.4633 22.5533 37.9774 22.5536H31.5212C31.2712 22.5534 31.0249 22.4933 30.803 22.3782C30.581 22.2632 30.3899 22.0966 30.2457 21.8923C30.1015 21.6881 30.0084 21.4523 29.9743 21.2047C29.9401 20.957 29.9658 20.7048 30.0493 20.4692C30.3618 19.5879 30.8368 18.0598 31.2243 16.4004C31.6181 14.7192 31.8962 13.0192 31.8712 11.7442C31.8399 10.2817 31.6868 9.19418 31.3306 8.42543C31.0243 7.75355 30.5462 7.27543 29.6056 7.01293C29.4712 6.97543 29.3118 6.98793 29.1056 7.1223C28.8366 7.31482 28.6301 7.58215 28.5118 7.89105C27.7936 9.64622 26.9959 11.3678 26.1212 13.0504C25.6368 14.0161 25.1274 15.0317 24.5681 16.2223C22.9618 19.6411 21.3181 21.9161 20.0368 23.3567C19.3993 24.0754 18.8556 24.5848 18.4556 24.9254C18.2522 25.0979 18.0416 25.2616 17.8243 25.4161L17.7743 25.4473L17.7587 25.4598L17.7462 25.4661Z" fill="white"/>
</svg>
