<svg width="44" height="44" viewBox="0 0 44 44" fill="none" xmlns="http://www.w3.org/2000/svg">
<path d="M29.5882 24.6794H20.6596C20.3044 24.6794 19.9637 24.5383 19.7126 24.2871C19.4614 24.036 19.3203 23.6953 19.3203 23.3401V10.8401C19.3203 10.4849 19.4614 10.1443 19.7126 9.8931C19.9637 9.64194 20.3044 9.50084 20.6596 9.50084C21.0148 9.50084 21.3554 9.64194 21.6066 9.8931C21.8578 10.1443 21.9989 10.4849 21.9989 10.8401V22.0008H29.5882C29.9434 22.0008 30.284 22.1419 30.5352 22.3931C30.7864 22.6443 30.9275 22.9849 30.9275 23.3401C30.9275 23.6953 30.7864 24.036 30.5352 24.2871C30.284 24.5383 29.9434 24.6794 29.5882 24.6794ZM21.9989 0.572266C10.1632 0.572266 0.570312 10.1669 0.570312 22.0008C0.570312 33.8348 10.1632 43.4294 21.9989 43.4294C33.8328 43.4294 43.4275 33.8348 43.4275 22.0008C43.4275 10.1669 33.8328 0.572266 21.9989 0.572266Z" fill="black"/>
</svg>
