<svg width="50" height="51" viewBox="0 0 50 51" fill="none" xmlns="http://www.w3.org/2000/svg">
<path d="M16.25 15.7168C15.9185 15.7168 15.6005 15.8485 15.3661 16.0829C15.1317 16.3173 15 16.6353 15 16.9668C15 17.2983 15.1317 17.6163 15.3661 17.8507C15.6005 18.0851 15.9185 18.2168 16.25 18.2168H33.75C34.0815 18.2168 34.3995 18.0851 34.6339 17.8507C34.8683 17.6163 35 17.2983 35 16.9668C35 16.6353 34.8683 16.3173 34.6339 16.0829C34.3995 15.8485 34.0815 15.7168 33.75 15.7168H16.25ZM15 24.4668C15 24.1353 15.1317 23.8173 15.3661 23.5829C15.6005 23.3485 15.9185 23.2168 16.25 23.2168H26.25C26.5815 23.2168 26.8995 23.3485 27.1339 23.5829C27.3683 23.8173 27.5 24.1353 27.5 24.4668C27.5 24.7983 27.3683 25.1163 27.1339 25.3507C26.8995 25.5851 26.5815 25.7168 26.25 25.7168H16.25C15.9185 25.7168 15.6005 25.5851 15.3661 25.3507C15.1317 25.1163 15 24.7983 15 24.4668ZM16.25 30.7168C15.9185 30.7168 15.6005 30.8485 15.3661 31.0829C15.1317 31.3173 15 31.6353 15 31.9668C15 32.2983 15.1317 32.6163 15.3661 32.8507C15.6005 33.0851 15.9185 33.2168 16.25 33.2168H23.0175C23.2658 32.3435 23.5933 31.5101 24 30.7168H16.25ZM13.75 40.7168H23.0175C23.2658 41.5901 23.5933 42.4235 24 43.2168H13.75C12.0924 43.2168 10.5027 42.5583 9.33058 41.3862C8.15848 40.2141 7.5 38.6244 7.5 36.9668V14.4668C7.5 12.8092 8.15848 11.2195 9.33058 10.0474C10.5027 8.87528 12.0924 8.2168 13.75 8.2168H36.25C37.9076 8.2168 39.4973 8.87528 40.6694 10.0474C41.8415 11.2195 42.5 12.8092 42.5 14.4668V24.7168C41.7007 24.3085 40.8634 23.9794 40 23.7343V14.4668C40 13.4722 39.6049 12.5184 38.9017 11.8151C38.1984 11.1119 37.2446 10.7168 36.25 10.7168H13.75C12.7554 10.7168 11.8016 11.1119 11.0983 11.8151C10.3951 12.5184 10 13.4722 10 14.4668V36.9668C10 37.9614 10.3951 38.9152 11.0983 39.6184C11.8016 40.3217 12.7554 40.7168 13.75 40.7168ZM47.5 36.9668C47.5 39.9505 46.3147 42.812 44.2049 44.9217C42.0952 47.0315 39.2337 48.2168 36.25 48.2168C33.2663 48.2168 30.4048 47.0315 28.295 44.9217C26.1853 42.812 25 39.9505 25 36.9668C25 33.9831 26.1853 31.1216 28.295 29.0118C30.4048 26.9021 33.2663 25.7168 36.25 25.7168C39.2337 25.7168 42.0952 26.9021 44.2049 29.0118C46.3147 31.1216 47.5 33.9831 47.5 36.9668ZM40.365 32.3318L33.75 38.9493L32.135 37.3318C31.9003 37.0971 31.5819 36.9652 31.25 36.9652C30.9181 36.9652 30.5997 37.0971 30.365 37.3318C30.1303 37.5665 29.9984 37.8849 29.9984 38.2168C29.9984 38.5487 30.1303 38.8671 30.365 39.1018L32.865 41.6018C32.9811 41.7182 33.1191 41.8106 33.2709 41.8736C33.4228 41.9366 33.5856 41.969 33.75 41.969C33.9144 41.969 34.0772 41.9366 34.2291 41.8736C34.3809 41.8106 34.5189 41.7182 34.635 41.6018L42.135 34.1018C42.3697 33.8671 42.5016 33.5487 42.5016 33.2168C42.5016 32.8849 42.3697 32.5665 42.135 32.3318C41.9003 32.0971 41.5819 31.9652 41.25 31.9652C40.9181 31.9652 40.5997 32.0971 40.365 32.3318Z" fill="white"/>
</svg>
