<svg width="40" height="40" viewBox="0 0 40 40" fill="none" xmlns="http://www.w3.org/2000/svg">
<rect width="40" height="40" rx="5" fill="#FB8500" fill-opacity="0.4"/>
<path d="M18 26C17.45 26 16.9793 25.8043 16.588 25.413C16.1967 25.0217 16.0007 24.5507 16 24V22.75C15.05 22.1 14.3127 21.2667 13.788 20.25C13.2633 19.2333 13.0007 18.15 13 17C13 15.05 13.6793 13.396 15.038 12.038C16.3967 10.68 18.0507 10.0007 20 10C21.9493 9.99933 23.6037 10.6787 24.963 12.038C26.3223 13.3973 27.0013 15.0513 27 17C27 18.15 26.7373 19.2293 26.212 20.238C25.6867 21.2467 24.9493 22.084 24 22.75V24C24 24.55 23.8043 25.021 23.413 25.413C23.0217 25.805 22.5507 26.0007 22 26H18ZM18 30C17.7167 30 17.4793 29.904 17.288 29.712C17.0967 29.52 17.0007 29.2827 17 29C16.9993 28.7173 17.0953 28.48 17.288 28.288C17.4807 28.096 17.718 28 18 28H22C22.2833 28 22.521 28.096 22.713 28.288C22.905 28.48 23.0007 28.7173 23 29C22.9993 29.2827 22.9033 29.5203 22.712 29.713C22.5207 29.9057 22.2833 30.0013 22 30H18Z" fill="#FB8500"/>
</svg>
