<svg width="40" height="40" viewBox="0 0 40 40" fill="none" xmlns="http://www.w3.org/2000/svg">
<rect width="40" height="40" rx="5" fill="#FB8500" fill-opacity="0.4"/>
<path d="M9 26.1493V14.0993C9 13.916 9.046 13.741 9.138 13.5743C9.23 13.4076 9.36733 13.2826 9.55 13.1993C10.3167 12.7993 11.1167 12.4993 11.95 12.2993C12.7833 12.0993 13.6333 11.9993 14.5 11.9993C15.7333 11.9993 16.7833 12.141 17.65 12.4243C18.5167 12.7076 19.45 13.141 20.45 13.7243C20.6333 13.8243 20.771 13.941 20.863 14.0743C20.955 14.2076 21.0007 14.3826 21 14.5993V25.0493C21.7333 24.6993 22.471 24.4366 23.213 24.2613C23.955 24.086 24.7173 23.9986 25.5 23.9993C26.1 23.9993 26.6877 24.0493 27.263 24.1493C27.8383 24.2493 28.4173 24.3993 29 24.5993V13.5743C29 13.291 29.096 13.0533 29.288 12.8613C29.48 12.6693 29.7173 12.5736 30 12.5743C30.2827 12.575 30.5203 12.671 30.713 12.8623C30.9057 13.0536 31.0013 13.291 31 13.5743V26.1493C31 26.5326 30.8373 26.8243 30.512 27.0243C30.1867 27.2243 29.8493 27.2326 29.5 27.0493C28.8833 26.716 28.2377 26.4576 27.563 26.2743C26.8883 26.091 26.2007 25.9993 25.5 25.9993C24.6833 25.9993 23.8877 26.1203 23.113 26.3623C22.3383 26.6043 21.6007 26.9416 20.9 27.3743C20.7667 27.4576 20.621 27.5203 20.463 27.5623C20.305 27.6043 20.1507 27.625 20 27.6243C19.8493 27.6236 19.6953 27.603 19.538 27.5623C19.3807 27.5216 19.2347 27.459 19.1 27.3743C18.4 26.941 17.6627 26.6036 16.888 26.3623C16.1133 26.121 15.3173 26 14.5 25.9993C13.8 25.9993 13.1127 26.091 12.438 26.2743C11.7633 26.4576 11.1173 26.716 10.5 27.0493C10.15 27.2326 9.81267 27.2243 9.488 27.0243C9.16333 26.8243 9.00067 26.5326 9 26.1493ZM23.5 20.9493V11.7243C23.5 11.5076 23.5627 11.3116 23.688 11.1363C23.8133 10.961 23.9757 10.8403 24.175 10.7743L25.525 10.3243C25.7583 10.241 25.9793 10.2786 26.188 10.4373C26.3967 10.596 26.5007 10.8 26.5 11.0493V20.2743C26.5 20.491 26.4377 20.687 26.313 20.8623C26.1883 21.0376 26.0257 21.1583 25.825 21.2243L24.475 21.6743C24.2417 21.7576 24.0207 21.7203 23.812 21.5623C23.6033 21.4043 23.4993 21.2 23.5 20.9493Z" fill="#FB8500"/>
</svg>
