<svg width="60" height="50" viewBox="0 0 60 50" fill="none" xmlns="http://www.w3.org/2000/svg">
<circle cx="20" cy="25" r="20" fill="#FFA630"/>
<path d="M35 7.5C34.0054 7.5 33.0516 7.89509 32.3483 8.59835C31.6451 9.30161 31.25 10.2554 31.25 11.25C31.25 12.2446 31.6451 13.1984 32.3483 13.9017C33.0516 14.6049 34.0054 15 35 15C35.9946 15 36.9484 14.6049 37.6517 13.9017C38.3549 13.1984 38.75 12.2446 38.75 11.25C38.75 10.2554 38.3549 9.30161 37.6517 8.59835C36.9484 7.89509 35.9946 7.5 35 7.5ZM28.75 11.25C28.75 9.5924 29.4085 8.00269 30.5806 6.83058C31.7527 5.65848 33.3424 5 35 5C36.6576 5 38.2473 5.65848 39.4194 6.83058C40.5915 8.00269 41.25 9.5924 41.25 11.25C41.25 12.9076 40.5915 14.4973 39.4194 15.6694C38.2473 16.8415 36.6576 17.5 35 17.5C33.3424 17.5 31.7527 16.8415 30.5806 15.6694C29.4085 14.4973 28.75 12.9076 28.75 11.25ZM48.75 10C48.087 10 47.4511 10.2634 46.9822 10.7322C46.5134 11.2011 46.25 11.837 46.25 12.5C46.25 13.163 46.5134 13.7989 46.9822 14.2678C47.4511 14.7366 48.087 15 48.75 15C49.413 15 50.0489 14.7366 50.5178 14.2678C50.9866 13.7989 51.25 13.163 51.25 12.5C51.25 11.837 50.9866 11.2011 50.5178 10.7322C50.0489 10.2634 49.413 10 48.75 10ZM43.75 12.5C43.75 11.1739 44.2768 9.90215 45.2145 8.96447C46.1521 8.02678 47.4239 7.5 48.75 7.5C50.0761 7.5 51.3479 8.02678 52.2855 8.96447C53.2232 9.90215 53.75 11.1739 53.75 12.5C53.75 13.8261 53.2232 15.0979 52.2855 16.0355C51.3479 16.9732 50.0761 17.5 48.75 17.5C47.4239 17.5 46.1521 16.9732 45.2145 16.0355C44.2768 15.0979 43.75 13.8261 43.75 12.5ZM18.75 12.5C18.75 11.837 19.0134 11.2011 19.4822 10.7322C19.9511 10.2634 20.587 10 21.25 10C21.913 10 22.5489 10.2634 23.0178 10.7322C23.4866 11.2011 23.75 11.837 23.75 12.5C23.75 13.163 23.4866 13.7989 23.0178 14.2678C22.5489 14.7366 21.913 15 21.25 15C20.587 15 19.9511 14.7366 19.4822 14.2678C19.0134 13.7989 18.75 13.163 18.75 12.5ZM21.25 7.5C19.9239 7.5 18.6521 8.02678 17.7145 8.96447C16.7768 9.90215 16.25 11.1739 16.25 12.5C16.25 13.8261 16.7768 15.0979 17.7145 16.0355C18.6521 16.9732 19.9239 17.5 21.25 17.5C22.5761 17.5 23.8479 16.9732 24.7855 16.0355C25.7232 15.0979 26.25 13.8261 26.25 12.5C26.25 11.1739 25.7232 9.90215 24.7855 8.96447C23.8479 8.02678 22.5761 7.5 21.25 7.5ZM22.75 37.495L22.5 37.5C21.1739 37.5 19.9021 36.9732 18.9645 36.0355C18.0268 35.0979 17.5 33.8261 17.5 32.5V23.125C17.5 22.9592 17.5658 22.8003 17.6831 22.6831C17.8003 22.5658 17.9592 22.5 18.125 22.5H22.535C22.635 21.5825 22.96 20.73 23.4475 20H18.125C16.4 20 15 21.4 15 23.125V32.5C14.9999 33.5703 15.2288 34.6282 15.6715 35.6027C16.1142 36.5772 16.7603 37.4456 17.5664 38.1497C18.3725 38.8537 19.32 39.3771 20.3452 39.6846C21.3703 39.9921 22.4495 40.0766 23.51 39.9325C23.1741 39.1481 22.9195 38.3313 22.75 37.495ZM46.49 39.9325C46.82 39.9775 47.1567 40 47.5 40C49.4891 40 51.3968 39.2098 52.8033 37.8033C54.2098 36.3968 55 34.4891 55 32.5V23.125C55 21.4 53.6 20 51.875 20H46.5525C47.0425 20.73 47.365 21.5825 47.465 22.5H51.875C52.0408 22.5 52.1997 22.5658 52.3169 22.6831C52.4342 22.8003 52.5 22.9592 52.5 23.125V32.5C52.5002 33.1778 52.3625 33.8485 52.0955 34.4714C51.8284 35.0944 51.4375 35.6565 50.9465 36.1237C50.4554 36.5908 49.8746 36.9533 49.2391 37.1891C48.6037 37.4248 47.9269 37.5289 47.25 37.495C47.0805 38.3313 46.8259 39.1481 46.49 39.9325ZM28.125 20C26.4 20 25 21.4 25 23.125V35C25 37.6522 26.0536 40.1957 27.9289 42.0711C29.8043 43.9464 32.3478 45 35 45C37.6522 45 40.1957 43.9464 42.0711 42.0711C43.9464 40.1957 45 37.6522 45 35V23.125C45 21.4 43.6 20 41.875 20H28.125ZM27.5 23.125C27.5 22.9592 27.5658 22.8003 27.6831 22.6831C27.8003 22.5658 27.9592 22.5 28.125 22.5H41.875C42.0408 22.5 42.1997 22.5658 42.3169 22.6831C42.4342 22.8003 42.5 22.9592 42.5 23.125V35C42.5 36.9891 41.7098 38.8968 40.3033 40.3033C38.8968 41.7098 36.9891 42.5 35 42.5C33.0109 42.5 31.1032 41.7098 29.6967 40.3033C28.2902 38.8968 27.5 36.9891 27.5 35V23.125Z" fill="white"/>
</svg>
