<svg width="31" height="29" viewBox="0 0 31 29" fill="none" xmlns="http://www.w3.org/2000/svg">
<path d="M16.2562 0.520375L16.3862 0.528375H20.9782L21.0842 0.522375C21.6534 0.460125 22.2279 0.464152 22.7962 0.534375C23.5577 0.57143 24.3006 0.782134 24.9682 1.15037C26.2282 1.72237 27.3282 2.64438 28.1122 3.85038C28.8348 4.95863 29.2436 6.24201 29.295 7.56405C29.3464 8.88609 29.0385 10.1973 28.4042 11.3584L21.9742 4.84637C21.881 4.75237 21.7701 4.6778 21.6478 4.62699C21.5256 4.57618 21.3945 4.55014 21.2622 4.55037H18.6002C18.3822 4.55008 18.1701 4.62101 17.9962 4.75237L13.7002 8.00637C13.4375 8.20476 13.1342 8.34259 12.812 8.40999C12.4898 8.47739 12.1567 8.47269 11.8365 8.39624C11.5164 8.31978 11.2171 8.17345 10.9601 7.96774C10.7031 7.76204 10.4948 7.50204 10.3502 7.20638C10.1287 6.7496 10.0726 6.23012 10.1915 5.73661C10.3104 5.2431 10.597 4.80616 11.0022 4.50037L16.2562 0.520375ZM8.26216 18.2304L8.23416 18.2564L6.70816 19.7764L6.68216 19.8004C6.45504 20.0132 6.15412 20.1295 5.8429 20.1246C5.53168 20.1198 5.23453 19.9942 5.01416 19.7744C4.90259 19.6646 4.81398 19.5337 4.7535 19.3893C4.69302 19.2449 4.66188 19.0899 4.66188 18.9334C4.66188 18.7768 4.69302 18.6219 4.7535 18.4775C4.81398 18.3331 4.90259 18.2022 5.01416 18.0924L6.54216 16.5744C6.76707 16.3503 7.07164 16.2244 7.38916 16.2244C7.70667 16.2244 8.01124 16.3503 8.23616 16.5744C8.69616 17.0304 8.70416 17.7644 8.26216 18.2304ZM8.10016 21.2104C7.66016 21.6764 7.66816 22.4104 8.12616 22.8664C8.35107 23.0905 8.65564 23.2163 8.97316 23.2163C9.29067 23.2163 9.59524 23.0905 9.82016 22.8664L11.3482 21.3484C11.4735 21.2241 11.5695 21.0733 11.6291 20.9072C11.6887 20.741 11.7103 20.5636 11.6925 20.388C11.6747 20.2123 11.6178 20.0429 11.526 19.8921C11.4343 19.7413 11.3099 19.6129 11.1622 19.5164C10.9374 19.3679 10.6691 19.2994 10.4007 19.3219C10.1322 19.3444 9.87912 19.4566 9.68216 19.6404L9.65416 19.6664L8.12816 21.1844L8.10016 21.2104ZM4.49616 14.1064C4.60772 14.2162 4.69633 14.3471 4.75681 14.4915C4.81729 14.6359 4.84844 14.7908 4.84844 14.9474C4.84844 15.1039 4.81729 15.2589 4.75681 15.4033C4.69633 15.5477 4.60772 15.6786 4.49616 15.7884L2.96816 17.3064C2.74324 17.5305 2.43867 17.6563 2.12116 17.6563C1.80364 17.6563 1.49907 17.5305 1.27416 17.3064C1.16259 17.1966 1.07398 17.0657 1.0135 16.9213C0.953022 16.7769 0.921875 16.6219 0.921875 16.4654C0.921875 16.3088 0.953022 16.1539 1.0135 16.0095C1.07398 15.8651 1.16259 15.7342 1.27416 15.6244L2.80216 14.1044C3.02707 13.8803 3.33164 13.7544 3.64916 13.7544C3.96667 13.7544 4.27124 13.8803 4.49616 14.1044M14.4602 22.7564C14.5717 22.8662 14.6603 22.9971 14.7208 23.1415C14.7813 23.2859 14.8124 23.4408 14.8124 23.5974C14.8124 23.7539 14.7813 23.9089 14.7208 24.0533C14.6603 24.1977 14.5717 24.3286 14.4602 24.4384L12.9322 25.9584C12.7072 26.1825 12.4027 26.3083 12.0852 26.3083C11.7676 26.3083 11.4631 26.1825 11.2382 25.9584C11.0472 25.7704 10.926 25.523 10.8944 25.2569C10.8628 24.9908 10.9226 24.7219 11.0642 24.4944L11.0702 24.4864C11.118 24.4096 11.1743 24.3385 11.2382 24.2744L12.7662 22.7564C12.9911 22.5323 13.2956 22.4064 13.6132 22.4064C13.9307 22.4064 14.2352 22.5323 14.4602 22.7564ZM4.06016 3.30037C5.17221 2.19589 6.53976 1.38305 8.0414 0.934024C9.54305 0.484996 11.1323 0.413669 12.6682 0.726375L9.79416 2.90637C9.35362 3.24016 8.98341 3.65774 8.7048 4.13508C8.4262 4.61243 8.24469 5.14014 8.17072 5.68788C8.09674 6.23561 8.13176 6.79256 8.27377 7.32672C8.41577 7.86087 8.66195 8.36169 8.99816 8.80037C9.67822 9.68742 10.6816 10.2694 11.7892 10.4193C12.8969 10.5692 14.0188 10.2748 14.9102 9.60038L18.9382 6.55037H20.7562L24.6322 10.4004L24.6402 10.3904L27.8562 13.6484L27.9042 13.6944L29.6342 15.4244C30.0007 15.7952 30.2113 16.2924 30.2228 16.8137C30.2342 17.335 30.0455 17.841 29.6956 18.2275C29.3456 18.6141 28.8609 18.852 28.341 18.8923C27.8211 18.9326 27.3055 18.7723 26.9002 18.4444L26.7542 18.3004L26.6462 18.2064L24.9462 16.5064C24.7586 16.3186 24.5042 16.213 24.2389 16.2128C23.9735 16.2126 23.7189 16.3179 23.5312 16.5054C23.3434 16.6929 23.2378 16.9473 23.2376 17.2127C23.2374 17.478 23.3426 17.7326 23.5302 17.9204L25.3342 19.7244C25.4035 19.791 25.4735 19.8557 25.5442 19.9184L25.6042 19.9784C25.8635 20.2375 26.0094 20.589 26.0096 20.9557C26.0097 21.3223 25.8643 21.674 25.6052 21.9334C25.346 22.1928 24.9945 22.3386 24.6279 22.3388C24.2612 22.339 23.9095 22.1935 23.6502 21.9344L23.3842 21.6704C23.2435 21.5301 23.0642 21.4349 22.8692 21.3969C22.6742 21.359 22.4723 21.38 22.2893 21.4572C22.1062 21.5345 21.9503 21.6645 21.8415 21.8307C21.7327 21.9969 21.6758 22.1917 21.6782 22.3904C21.6755 22.5248 21.7 22.6584 21.7502 22.7831C21.8004 22.9079 21.8752 23.0212 21.9702 23.1164L22.3202 23.4664C22.4374 23.5836 22.5304 23.7229 22.5939 23.8761C22.6574 24.0293 22.69 24.1935 22.69 24.3594C22.69 24.5252 22.6574 24.6894 22.5939 24.8427C22.5304 24.9959 22.4374 25.1351 22.3202 25.2524C22.2029 25.3696 22.0637 25.4627 21.9104 25.5261C21.7572 25.5896 21.593 25.6223 21.4272 25.6223C21.2613 25.6223 21.0971 25.5896 20.9439 25.5261C20.7906 25.4627 20.6514 25.3696 20.5342 25.2524L20.3562 25.0724C20.2952 25.0015 20.2319 24.9328 20.1662 24.8664L19.8402 24.5404C19.6516 24.3582 19.399 24.2574 19.1368 24.2597C18.8746 24.262 18.6237 24.3671 18.4383 24.5526C18.2529 24.738 18.1478 24.9888 18.1455 25.251C18.1432 25.5132 18.244 25.7658 18.4262 25.9544L18.6702 26.1984C18.7008 26.2384 18.7342 26.2777 18.7702 26.3164L18.8682 26.4124C19.0676 26.6712 19.162 26.9958 19.1323 27.3212C19.1026 27.6466 18.9511 27.9488 18.7081 28.1673C18.4651 28.3857 18.1486 28.5044 17.8219 28.4994C17.4951 28.4944 17.1824 28.3662 16.9462 28.1404L15.2162 26.5104L15.8802 25.8504C16.1773 25.5558 16.4132 25.2054 16.5741 24.8192C16.7351 24.433 16.818 24.0188 16.818 23.6004C16.818 23.182 16.7351 22.7677 16.5741 22.3816C16.4132 21.9954 16.1773 21.6449 15.8802 21.3504C15.3006 20.773 14.522 20.4395 13.7042 20.4184C13.682 19.6047 13.3467 18.8309 12.7682 18.2584C12.1891 17.6815 11.4113 17.348 10.5942 17.3264C10.5715 16.5124 10.2354 15.7386 9.65616 15.1664C9.28601 14.7965 8.83083 14.5231 8.33047 14.37C7.83012 14.217 7.29986 14.1889 6.78616 14.2884C6.65581 13.6849 6.35366 13.132 5.91616 12.6964C5.35263 12.1385 4.60307 11.8081 3.81108 11.7687C3.01909 11.7292 2.24038 11.9833 1.62416 12.4824C1.17693 10.8735 1.16729 9.17449 1.59624 7.56068C2.02518 5.94688 2.87715 4.47684 4.06416 3.30237" fill="black"/>
</svg>
