<svg width="46" height="38" viewBox="0 0 46 38" fill="none" xmlns="http://www.w3.org/2000/svg">
<path d="M19.0161 1.24218C20.2141 0.50287 21.5941 0.111328 23.0019 0.111328C24.4096 0.111328 25.7896 0.50287 26.9876 1.24218L44.6876 12.1636C44.8795 12.282 45.0384 12.4468 45.1497 12.643C45.2609 12.8391 45.3208 13.0602 45.3238 13.2856C45.3269 13.5111 45.2729 13.7337 45.167 13.9327C45.0611 14.1318 44.9066 14.3009 44.7179 14.4243L27.1554 25.9065C25.9206 26.7139 24.4772 27.144 23.0019 27.144C21.5265 27.144 20.0831 26.7139 18.8483 25.9065L3.359 15.7815V26.6975C3.359 27.0527 3.2179 27.3934 2.96674 27.6446C2.71557 27.8957 2.37492 28.0368 2.01972 28.0368C1.66452 28.0368 1.32387 27.8957 1.0727 27.6446C0.821537 27.3934 0.680434 27.0527 0.680434 26.6975V13.7493C0.680434 13.6719 0.686386 13.5975 0.698291 13.5261C0.654026 13.2633 0.689175 12.9933 0.799241 12.7505C0.909307 12.5078 1.08929 12.3035 1.31615 12.1636L19.0161 1.24218ZM8.71615 22.4815L17.3822 28.1475C19.0529 29.24 21.0057 29.8219 23.0019 29.8219C24.998 29.8219 26.9509 29.24 28.6215 28.1475L37.2876 22.4833V31.16C37.2876 31.694 36.9983 32.0154 36.6572 32.3493C36.4876 32.5136 36.2447 32.7422 35.9269 33.0136C35.0671 33.7472 34.1472 34.4073 33.1769 34.9868C30.7983 36.4154 27.3251 37.8565 23.0019 37.8565C18.6804 37.8565 15.2054 36.4154 12.8269 34.9868C11.8566 34.4073 10.9367 33.7472 10.0769 33.0136C9.82606 32.7997 9.5819 32.5782 9.34472 32.3493C9.00543 32.0154 8.71615 31.694 8.71615 31.16V22.4815Z" fill="black"/>
</svg>
