<svg width="12" height="12" viewBox="0 0 12 12" fill="none" xmlns="http://www.w3.org/2000/svg">
<g clip-path="url(#clip0_4092_2154)">
<path d="M5.16062 2.18912C5.42314 2.0646 5.71006 2 6.00062 2C6.29117 2 6.5781 2.0646 6.84062 2.18912L11.7146 4.49812C11.7995 4.53831 11.8714 4.6016 11.922 4.68074C11.9726 4.75989 11.9999 4.85169 12.0007 4.94562C12.0015 5.03955 11.9759 5.13182 11.9267 5.21185C11.8775 5.29188 11.8068 5.35644 11.7226 5.39812L6.87262 7.80412C6.60164 7.93874 6.30318 8.00878 6.00062 8.00878C5.69805 8.00878 5.39959 7.93874 5.12862 7.80412L1.00062 5.75612V8.00012C1.00062 8.13273 0.947938 8.25991 0.85417 8.35368C0.760402 8.44745 0.633225 8.50012 0.500617 8.50012C0.368008 8.50012 0.240831 8.44745 0.147063 8.35368C0.053295 8.25991 0.000616543 8.13273 0.000616543 8.00012V4.97512C-0.00429834 4.87623 0.0202585 4.77811 0.0711744 4.69319C0.12209 4.60827 0.197073 4.54038 0.286617 4.49812L5.16062 2.18912ZM2.00062 7.36912V9.00012C2.00063 9.0659 2.01362 9.13102 2.03885 9.19177C2.06407 9.25252 2.10103 9.30769 2.14762 9.35412L2.14962 9.35712L2.17262 9.37812L2.23262 9.43412C2.28262 9.48079 2.35495 9.54312 2.44962 9.62112C2.63662 9.77412 2.90662 9.97612 3.24362 10.1791C3.91362 10.5801 4.87762 11.0001 6.00062 11.0001C7.12362 11.0001 8.08862 10.5801 8.75762 10.1791C9.11754 9.96304 9.45637 9.71361 9.76962 9.43412L9.82962 9.37812L9.84562 9.36212L9.85162 9.35612L9.85262 9.35512L9.85462 9.35412C9.90102 9.30761 9.9378 9.2524 9.96285 9.19165C9.9879 9.13091 10.0007 9.06583 10.0006 9.00012V7.36812L7.31662 8.70012C6.90763 8.90313 6.45722 9.00876 6.00062 9.00876C5.54402 9.00876 5.09361 8.90313 4.68462 8.70012L2.00062 7.36912Z" fill="white"/>
</g>
<defs>
<clipPath id="clip0_4092_2154">
<rect width="12" height="12" fill="white"/>
</clipPath>
</defs>
</svg>
