<svg width="40" height="40" viewBox="0 0 40 40" fill="none" xmlns="http://www.w3.org/2000/svg">
<rect width="40" height="40" rx="5" fill="#FB8500" fill-opacity="0.4"/>
<path d="M15.5 30C14.5333 30 13.7083 29.6583 13.025 28.975C12.3417 28.2917 12 27.4667 12 26.5V13.5C12 12.5333 12.3417 11.7083 13.025 11.025C13.7083 10.3417 14.5333 10 15.5 10H28V25C27.5833 25 27.2293 25.146 26.938 25.438C26.6467 25.73 26.5007 26.084 26.5 26.5C26.4993 26.916 26.6453 27.2703 26.938 27.563C27.2307 27.8557 27.5847 28.0013 28 28V30H15.5ZM16 23H18V12H16V23ZM15.5 28H24.825C24.725 27.7667 24.646 27.5293 24.588 27.288C24.53 27.0467 24.5007 26.784 24.5 26.5C24.5 26.2333 24.525 25.975 24.575 25.725C24.625 25.475 24.7083 25.2333 24.825 25H15.5C15.0667 25 14.7083 25.146 14.425 25.438C14.1417 25.73 14 26.084 14 26.5C14 26.9333 14.1417 27.2917 14.425 27.575C14.7083 27.8583 15.0667 28 15.5 28Z" fill="#FB8500"/>
</svg>
