<svg width="36" height="36" viewBox="0 0 36 36" fill="none" xmlns="http://www.w3.org/2000/svg">
<path d="M6.375 0.75C4.88316 0.75 3.45242 1.34263 2.39752 2.39752C1.34263 3.45242 0.75 4.88316 0.75 6.375V27.625C0.75 29.1168 1.34263 30.5476 2.39752 31.6025C3.45242 32.6574 4.88316 33.25 6.375 33.25H17.4688C15.8136 31.1127 14.9874 28.4488 15.1425 25.75H9.5C9.16848 25.75 8.85054 25.6183 8.61612 25.3839C8.3817 25.1495 8.25 24.8315 8.25 24.5C8.25 24.1685 8.3817 23.8505 8.61612 23.6161C8.85054 23.3817 9.16848 23.25 9.5 23.25H15.565C16.1262 21.3112 17.1987 19.5592 18.67 18.1775C18.5352 18.2255 18.3931 18.2501 18.25 18.25H9.5C9.16848 18.25 8.85054 18.1183 8.61612 17.8839C8.3817 17.6495 8.25 17.3315 8.25 17C8.25 16.6685 8.3817 16.3505 8.61612 16.1161C8.85054 15.8817 9.16848 15.75 9.5 15.75H18.25C18.4653 15.75 18.677 15.8055 18.8646 15.9114C19.0521 16.0172 19.2091 16.1696 19.3204 16.354C19.4317 16.5383 19.4935 16.7483 19.4997 16.9635C19.506 17.1788 19.4566 17.392 19.3563 17.5825C21.3477 15.9879 23.8238 15.1209 26.375 15.125C28.9638 15.125 31.35 16 33.25 17.4688V6.375C33.25 4.88316 32.6574 3.45242 31.6025 2.39752C30.5476 1.34263 29.1168 0.75 27.625 0.75H6.375ZM9.5 8.25H24.5C24.8315 8.25 25.1495 8.3817 25.3839 8.61612C25.6183 8.85054 25.75 9.16848 25.75 9.5C25.75 9.83152 25.6183 10.1495 25.3839 10.3839C25.1495 10.6183 24.8315 10.75 24.5 10.75H9.5C9.16848 10.75 8.85054 10.6183 8.61612 10.3839C8.3817 10.1495 8.25 9.83152 8.25 9.5C8.25 9.16848 8.3817 8.85054 8.61612 8.61612C8.85054 8.3817 9.16848 8.25 9.5 8.25ZM26.375 17C27.6061 17 28.8252 17.2425 29.9627 17.7136C31.1001 18.1848 32.1336 18.8753 33.0041 19.7459C33.8747 20.6164 34.5652 21.6499 35.0364 22.7873C35.5075 23.9248 35.75 25.1439 35.75 26.375C35.75 27.6061 35.5075 28.8252 35.0364 29.9627C34.5652 31.1001 33.8747 32.1336 33.0041 33.0041C32.1336 33.8747 31.1001 34.5652 29.9627 35.0364C28.8252 35.5075 27.6061 35.75 26.375 35.75C23.8886 35.75 21.504 34.7623 19.7459 33.0041C17.9877 31.246 17 28.8614 17 26.375C17 23.8886 17.9877 21.504 19.7459 19.7459C21.504 17.9877 23.8886 17 26.375 17ZM32.0375 22.9C31.8617 22.7244 31.6234 22.6258 31.375 22.6258C31.1266 22.6258 30.8883 22.7244 30.7125 22.9L24.8125 28.8L22.35 26.3375C22.2642 26.2454 22.1607 26.1715 22.0457 26.1203C21.9307 26.069 21.8065 26.0415 21.6807 26.0393C21.5548 26.037 21.4297 26.0602 21.313 26.1073C21.1963 26.1545 21.0902 26.2247 21.0012 26.3137C20.9122 26.4027 20.842 26.5088 20.7948 26.6255C20.7477 26.7422 20.7245 26.8673 20.7268 26.9932C20.729 27.119 20.7565 27.2432 20.8078 27.3582C20.859 27.4732 20.9329 27.5767 21.025 27.6625L24.15 30.7875C24.3258 30.9631 24.5641 31.0617 24.8125 31.0617C25.0609 31.0617 25.2992 30.9631 25.475 30.7875L32.0375 24.225C32.2131 24.0492 32.3117 23.8109 32.3117 23.5625C32.3117 23.3141 32.2131 23.0758 32.0375 22.9Z" fill="black"/>
</svg>
