<svg width="60" height="50" viewBox="0 0 60 50" fill="none" xmlns="http://www.w3.org/2000/svg">
<circle cx="20" cy="25" r="20" fill="#FFA630"/>
<path d="M35.1087 6.01058C35.7649 4.38558 37.5931 2.63558 39.9399 3.28871C41.7837 3.80121 42.9806 4.91371 43.6681 6.40121C44.3056 7.78558 44.4618 9.41683 44.4931 10.97C44.5243 12.6418 44.1743 14.645 43.7649 16.4012C43.5815 17.1771 43.3783 17.9482 43.1556 18.7137H47.4837C48.4548 18.7138 49.4125 18.9401 50.2808 19.3748C51.1492 19.8094 51.9043 20.4404 52.4863 21.2178C53.0684 21.9951 53.4612 22.8974 53.6338 23.853C53.8064 24.8086 53.7539 25.7913 53.4806 26.7231L49.2181 41.2418C48.9256 42.2381 48.4375 43.1662 47.7822 43.9717C47.127 44.7771 46.3177 45.4439 45.4018 45.933C44.4859 46.4221 43.4816 46.7237 42.4478 46.8202C41.4139 46.9167 40.3712 46.8061 39.3806 46.495L22.6431 41.2387C21.7376 40.9543 20.9088 40.4674 20.2195 39.8149C19.5302 39.1625 18.9986 38.3616 18.6649 37.4731L17.0399 33.1481C16.5228 31.7716 16.5075 30.2569 16.9968 28.8703C17.486 27.4837 18.4485 26.314 19.7149 25.5668L25.5649 22.1168L25.6149 22.0793C25.7228 21.9994 25.8281 21.916 25.9306 21.8293C26.2212 21.5793 26.6587 21.1731 27.1993 20.57C28.2743 19.3543 29.7524 17.3325 31.2368 14.1793C31.8774 12.8168 32.4149 11.745 32.9024 10.7731C33.6931 9.20121 34.3556 7.88558 35.1087 6.01058ZM27.2462 24.7512L27.1931 24.7825L21.3024 28.2575C20.6692 28.631 20.188 29.2159 19.9433 29.9092C19.6987 30.6025 19.7064 31.3599 19.9649 32.0481L21.5899 36.3731C21.7567 36.8178 22.0227 37.2187 22.3676 37.5452C22.7125 37.8717 23.1274 38.1153 23.5806 38.2575L40.3118 43.5137C40.9063 43.701 41.5322 43.7679 42.1528 43.7104C42.7735 43.6529 43.3764 43.4722 43.9264 43.1789C44.4764 42.8856 44.9623 42.4855 45.3558 42.0022C45.7493 41.5188 46.0424 40.9618 46.2181 40.3637L50.4774 25.845C50.6144 25.3788 50.6409 24.8872 50.5546 24.409C50.4684 23.9309 50.2719 23.4795 49.9807 23.0906C49.6895 22.7017 49.3116 22.3861 48.877 22.1687C48.4425 21.9514 47.9633 21.8384 47.4774 21.8387H41.0212C40.7712 21.8386 40.5249 21.7784 40.303 21.6634C40.081 21.5483 39.8899 21.3817 39.7457 21.1775C39.6015 20.9733 39.5084 20.7375 39.4743 20.4898C39.4401 20.2422 39.4658 19.99 39.5493 19.7543C39.8618 18.8731 40.3368 17.345 40.7243 15.6856C41.1181 14.0043 41.3962 12.3043 41.3712 11.0293C41.3399 9.56683 41.1868 8.47933 40.8306 7.71058C40.5243 7.03871 40.0462 6.56058 39.1056 6.29808C38.9712 6.26058 38.8118 6.27308 38.6056 6.40746C38.3366 6.59998 38.1301 6.86731 38.0118 7.17621C37.2936 8.93138 36.4959 10.653 35.6212 12.3356C35.1368 13.3012 34.6274 14.3168 34.0681 15.5075C32.4618 18.9262 30.8181 21.2012 29.5368 22.6418C28.8993 23.3606 28.3556 23.87 27.9556 24.2106C27.7522 24.383 27.5416 24.5467 27.3243 24.7012L27.2743 24.7325L27.2587 24.745L27.2462 24.7512Z" fill="white"/>
</svg>
