<svg width="30" height="31" viewBox="0 0 30 31" fill="none" xmlns="http://www.w3.org/2000/svg">
<path d="M21.832 1.89928C22.7298 1.00185 23.9473 0.497813 25.2166 0.498047C26.486 0.498281 27.7033 1.00277 28.6008 1.90053C29.4982 2.79828 30.0022 4.01577 30.002 5.28516C30.0018 6.55455 29.4973 7.77185 28.5995 8.66928L26.767 10.4993L27.4245 11.1543C27.8308 11.5605 28.1531 12.0429 28.373 12.5737C28.5929 13.1045 28.7061 13.6735 28.7061 14.248C28.7061 14.8226 28.5929 15.3915 28.373 15.9224C28.1531 16.4532 27.8308 16.9355 27.4245 17.3418L24.6345 20.1318C24.4001 20.3665 24.0821 20.4985 23.7504 20.4987C23.4187 20.499 23.1005 20.3674 22.8658 20.133C22.631 19.8986 22.4991 19.5806 22.4988 19.2489C22.4986 18.9172 22.6301 18.599 22.8645 18.3643L25.657 15.5743C25.8312 15.4001 25.9695 15.1934 26.0638 14.9658C26.1581 14.7383 26.2066 14.4944 26.2066 14.248C26.2066 14.0017 26.1581 13.7578 26.0638 13.5302C25.9695 13.3027 25.8312 13.0959 25.657 12.9218L24.9995 12.2693L10.112 27.1543C9.65972 27.6062 9.10855 27.9469 8.50202 28.1493L1.64451 30.4368C1.42421 30.5101 1.18785 30.5205 0.961933 30.467C0.736012 30.4135 0.529457 30.2981 0.365418 30.1339C0.201379 29.9696 0.0863391 29.7628 0.033192 29.5368C-0.0199551 29.3108 -0.00910893 29.0745 0.0645148 28.8543L2.34951 21.9993C2.55192 21.3927 2.89255 20.8416 3.34451 20.3893L21.832 1.89928Z" fill="black"/>
</svg>
