<svg width="28" height="33" viewBox="0 0 28 33" fill="none" xmlns="http://www.w3.org/2000/svg">
<path d="M16 0.5C14.9391 0.5 13.9217 0.921427 13.1716 1.67157C12.4214 2.42172 12 3.43913 12 4.5H7C6.20435 4.5 5.44129 4.81607 4.87868 5.37868C4.31607 5.94129 4 6.70435 4 7.5V12.5C2.93913 12.5 1.92172 12.9214 1.17157 13.6716C0.421427 14.4217 0 15.4391 0 16.5C0 17.5609 0.421427 18.5783 1.17157 19.3284C1.92172 20.0786 2.93913 20.5 4 20.5V25.5C4 26.2956 4.31607 27.0587 4.87868 27.6213C5.44129 28.1839 6.20435 28.5 7 28.5H12C12 29.5609 12.4214 30.5783 13.1716 31.3284C13.9217 32.0786 14.9391 32.5 16 32.5C17.0609 32.5 18.0783 32.0786 18.8284 31.3284C19.5786 30.5783 20 29.5609 20 28.5H25C25.7956 28.5 26.5587 28.1839 27.1213 27.6213C27.6839 27.0587 28 26.2956 28 25.5V20.5H26C24.9391 20.5 23.9217 20.0786 23.1716 19.3284C22.4214 18.5783 22 17.5609 22 16.5C22 15.4391 22.4214 14.4217 23.1716 13.6716C23.9217 12.9214 24.9391 12.5 26 12.5H28V7.5C28 6.70435 27.6839 5.94129 27.1213 5.37868C26.5587 4.81607 25.7956 4.5 25 4.5H20C20 3.43913 19.5786 2.42172 18.8284 1.67157C18.0783 0.921427 17.0609 0.5 16 0.5Z" fill="black"/>
</svg>
