<svg width="60" height="50" viewBox="0 0 60 50" fill="none" xmlns="http://www.w3.org/2000/svg">
<circle cx="20" cy="25" r="20" fill="#FFA630"/>
<path d="M26.25 15C25.9185 15 25.6005 15.1317 25.3661 15.3661C25.1317 15.6005 25 15.9185 25 16.25C25 16.5815 25.1317 16.8995 25.3661 17.1339C25.6005 17.3683 25.9185 17.5 26.25 17.5H43.75C44.0815 17.5 44.3995 17.3683 44.6339 17.1339C44.8683 16.8995 45 16.5815 45 16.25C45 15.9185 44.8683 15.6005 44.6339 15.3661C44.3995 15.1317 44.0815 15 43.75 15H26.25ZM25 23.75C25 23.4185 25.1317 23.1005 25.3661 22.8661C25.6005 22.6317 25.9185 22.5 26.25 22.5H36.25C36.5815 22.5 36.8995 22.6317 37.1339 22.8661C37.3683 23.1005 37.5 23.4185 37.5 23.75C37.5 24.0815 37.3683 24.3995 37.1339 24.6339C36.8995 24.8683 36.5815 25 36.25 25H26.25C25.9185 25 25.6005 24.8683 25.3661 24.6339C25.1317 24.3995 25 24.0815 25 23.75ZM26.25 30C25.9185 30 25.6005 30.1317 25.3661 30.3661C25.1317 30.6005 25 30.9185 25 31.25C25 31.5815 25.1317 31.8995 25.3661 32.1339C25.6005 32.3683 25.9185 32.5 26.25 32.5H33.0175C33.2658 31.6267 33.5933 30.7933 34 30H26.25ZM23.75 40H33.0175C33.2658 40.8733 33.5933 41.7067 34 42.5H23.75C22.0924 42.5 20.5027 41.8415 19.3306 40.6694C18.1585 39.4973 17.5 37.9076 17.5 36.25V13.75C17.5 12.0924 18.1585 10.5027 19.3306 9.33058C20.5027 8.15848 22.0924 7.5 23.75 7.5H46.25C47.9076 7.5 49.4973 8.15848 50.6694 9.33058C51.8415 10.5027 52.5 12.0924 52.5 13.75V24C51.7007 23.5917 50.8634 23.2626 50 23.0175V13.75C50 12.7554 49.6049 11.8016 48.9017 11.0983C48.1984 10.3951 47.2446 10 46.25 10H23.75C22.7554 10 21.8016 10.3951 21.0983 11.0983C20.3951 11.8016 20 12.7554 20 13.75V36.25C20 37.2446 20.3951 38.1984 21.0983 38.9017C21.8016 39.6049 22.7554 40 23.75 40ZM57.5 36.25C57.5 39.2337 56.3147 42.0952 54.2049 44.2049C52.0952 46.3147 49.2337 47.5 46.25 47.5C43.2663 47.5 40.4048 46.3147 38.295 44.2049C36.1853 42.0952 35 39.2337 35 36.25C35 33.2663 36.1853 30.4048 38.295 28.295C40.4048 26.1853 43.2663 25 46.25 25C49.2337 25 52.0952 26.1853 54.2049 28.295C56.3147 30.4048 57.5 33.2663 57.5 36.25ZM50.365 31.615L43.75 38.2325L42.135 36.615C41.9003 36.3803 41.5819 36.2484 41.25 36.2484C40.9181 36.2484 40.5997 36.3803 40.365 36.615C40.1303 36.8497 39.9984 37.1681 39.9984 37.5C39.9984 37.8319 40.1303 38.1503 40.365 38.385L42.865 40.885C42.9811 41.0014 43.1191 41.0938 43.2709 41.1568C43.4228 41.2198 43.5856 41.2522 43.75 41.2522C43.9144 41.2522 44.0772 41.2198 44.2291 41.1568C44.3809 41.0938 44.5189 41.0014 44.635 40.885L52.135 33.385C52.3697 33.1503 52.5016 32.8319 52.5016 32.5C52.5016 32.1681 52.3697 31.8497 52.135 31.615C51.9003 31.3803 51.5819 31.2484 51.25 31.2484C50.9181 31.2484 50.5997 31.3803 50.365 31.615Z" fill="white"/>
</svg>
