<svg width="60" height="50" viewBox="0 0 60 50" fill="none" xmlns="http://www.w3.org/2000/svg">
<circle cx="20" cy="25" r="20" fill="#FFA630"/>
<path d="M16.25 31.2513C16.25 36.8857 21.1094 42.6669 29.4438 43.6169C28.5468 42.5096 27.791 41.2951 27.1937 40.0013C22.1312 38.5419 19.375 34.7763 19.375 31.2513V29.6888C19.375 29.2744 19.5396 28.877 19.8326 28.5839C20.1257 28.2909 20.5231 28.1263 20.9375 28.1263H26.2719C26.5823 27.0346 26.9917 25.993 27.5 25.0013H20.9375C19.6943 25.0013 18.502 25.4951 17.6229 26.3742C16.7439 27.2533 16.25 28.4456 16.25 29.6888V31.2513ZM40.4688 13.2825C40.4667 14.1763 40.3375 15.0305 40.0813 15.845C38.5879 16.084 37.1326 16.519 35.7531 17.1388C36.682 16.2018 37.2408 14.9607 37.3266 13.6441C37.4124 12.3276 37.0193 11.0244 36.2199 9.97486C35.4204 8.92531 34.2685 8.20014 32.9765 7.93306C31.6845 7.66598 30.3394 7.87499 29.1894 8.52155C28.0393 9.16811 27.1618 10.2086 26.7185 11.4513C26.2753 12.6939 26.2962 14.0549 26.7775 15.2834C27.2587 16.5118 28.1678 17.5249 29.3372 18.1358C30.5066 18.7467 31.8574 18.9142 33.1406 18.6075C31.8902 19.4581 30.7575 20.47 29.7719 21.6169C28.2105 21.2236 26.791 20.3997 25.675 19.239C24.559 18.0784 23.7913 16.6276 23.4595 15.0521C23.1277 13.4765 23.2451 11.8394 23.7982 10.3272C24.3513 8.81504 25.318 7.48861 26.5881 6.49899C27.8583 5.50938 29.3808 4.89635 30.9823 4.72975C32.5838 4.56314 34.1999 4.84964 35.6466 5.55662C37.0932 6.2636 38.3122 7.36264 39.1648 8.72857C40.0173 10.0945 40.4691 11.6724 40.4688 13.2825ZM56.875 32.8138C56.875 34.6605 56.5113 36.4891 55.8046 38.1953C55.0979 39.9014 54.062 41.4517 52.7562 42.7575C51.4504 44.0633 49.9001 45.0991 48.194 45.8058C46.4878 46.5126 44.6592 46.8763 42.8125 46.8763C40.9658 46.8763 39.1372 46.5126 37.431 45.8058C35.7249 45.0991 34.1746 44.0633 32.8688 42.7575C31.563 41.4517 30.5272 39.9014 29.8204 38.1953C29.1137 36.4891 28.75 34.6605 28.75 32.8138C28.75 29.0842 30.2316 25.5073 32.8688 22.8701C35.506 20.2329 39.0829 18.7513 42.8125 18.7513C46.5421 18.7513 50.119 20.2329 52.7562 22.8701C55.3934 25.5073 56.875 29.0842 56.875 32.8138ZM42.8125 25.0013C42.3981 25.0013 42.0007 25.1659 41.7076 25.4589C41.4146 25.752 41.25 26.1494 41.25 26.5638V32.8138C41.25 33.2282 41.4146 33.6256 41.7076 33.9186C42.0007 34.2117 42.3981 34.3763 42.8125 34.3763H47.5C47.9144 34.3763 48.3118 34.2117 48.6049 33.9186C48.8979 33.6256 49.0625 33.2282 49.0625 32.8138C49.0625 32.3994 48.8979 32.002 48.6049 31.7089C48.3118 31.4159 47.9144 31.2513 47.5 31.2513H44.375V26.5638C44.375 26.1494 44.2104 25.752 43.9174 25.4589C43.6243 25.1659 43.2269 25.0013 42.8125 25.0013Z" fill="white"/>
</svg>
