<svg width="10" height="10" viewBox="0 0 10 10" fill="none" xmlns="http://www.w3.org/2000/svg">
<path d="M4.37852 0.402797C4.4357 0.281885 4.52415 0.180085 4.63385 0.108904C4.74356 0.0377227 4.87015 0 4.99932 0C5.12849 0 5.25508 0.0377227 5.36479 0.108904C5.4745 0.180085 5.56294 0.281885 5.62013 0.402797L6.79019 2.87789L9.40649 3.27541C9.53439 3.29467 9.65458 3.35092 9.75345 3.43778C9.85232 3.52464 9.92593 3.63866 9.96596 3.76693C10.006 3.8952 10.0108 4.03261 9.97992 4.1636C9.94902 4.29459 9.88362 4.41394 9.79112 4.50814L7.89717 6.43473L8.34412 9.15477C8.36602 9.28772 8.35183 9.42442 8.30317 9.54939C8.25451 9.67437 8.17332 9.78263 8.06878 9.86193C7.96423 9.94124 7.84052 9.98841 7.71163 9.99813C7.58274 10.0078 7.45382 9.9797 7.33945 9.91689L4.99932 8.63196L2.65919 9.91689C2.54483 9.9797 2.41591 10.0078 2.28701 9.99813C2.15812 9.98841 2.03441 9.94124 1.92987 9.86193C1.82533 9.78263 1.74413 9.67437 1.69547 9.54939C1.64681 9.42442 1.63263 9.28772 1.65452 9.15477L2.1007 6.43473L0.208289 4.50734C0.11603 4.41316 0.0508196 4.29393 0.020016 4.16312C-0.0107876 4.0323 -0.0059586 3.8951 0.0339582 3.767C0.073875 3.6389 0.147291 3.52499 0.245922 3.43813C0.344554 3.35127 0.464475 3.29491 0.592156 3.27541L3.20768 2.87789L4.37852 0.402797Z" fill="white"/>
</svg>
