<svg width="152" height="14" viewBox="0 0 152 14" fill="none" xmlns="http://www.w3.org/2000/svg">
<path d="M2.21651 7.57804C3.12687 7.21976 4.26167 7.0445 5.13094 6.97369C5.41205 6.94932 5.3134 7.16355 5.50327 7.15651C5.87988 7.14144 6.19138 6.97526 6.55176 6.98003C6.67447 6.98181 6.59596 7.3016 6.72348 7.29684C7.41551 7.2703 8.0239 7.05544 8.71401 6.96446C8.71448 6.96439 8.71496 6.96433 8.71544 6.96427C12.0732 6.5266 15.3587 5.94179 18.7315 5.40134C19.8459 5.22232 21.2422 5.21983 22.366 4.88569C22.496 4.84664 22.3684 4.60846 22.3896 4.58274C22.7248 4.1872 22.6909 4.7239 22.9638 4.74231C24.0492 4.81365 25.1998 4.62352 26.1778 4.34428C26.5932 4.22491 26.0768 3.79796 26.5554 4.00342C26.5885 4.01716 26.5296 4.30621 26.6513 4.31388C26.9291 4.33028 27.4161 4.19311 27.6251 4.17796C28.0264 4.15036 28.0934 4.13571 28.4641 4.0735C28.9735 3.99049 29.6035 4.0191 30.1389 3.86436C30.2534 3.83048 30.0512 3.58022 30.2297 3.50118C30.4097 3.4219 30.9048 3.36199 31.0824 3.39927C31.2598 3.43655 31.2256 3.66614 31.2634 3.71107C31.5763 4.09126 32.0493 3.413 32.1201 3.38656C33.4206 2.91882 34.6221 3.06814 35.8815 2.87316C36.8376 2.72446 37.8448 2.46204 38.7583 2.34606C39.8477 2.20891 40.7895 2.23227 41.8427 2.06621C41.954 2.04904 41.7799 1.73902 41.9158 1.71738C42.2865 1.65854 42.6572 1.60545 43.0283 1.56002C44.1057 1.42812 45.1851 1.36086 46.2798 1.40356C46.4274 1.40966 46.2732 1.71882 46.4224 1.74217C47.3362 1.87762 48.7914 2.30069 49.1931 0.993137C49.8005 0.981793 50.5363 0.962928 51.0985 1.16736C51.4604 1.299 51.1518 1.64383 51.5655 1.47149C51.6589 1.43305 51.5094 1.16867 51.6515 1.13188C52.2502 0.977226 52.9215 1.01113 53.5121 0.821013C53.6322 0.781695 53.5793 0.537316 53.6105 0.490088C53.8748 0.106621 54.4066 0.665508 54.5154 0.701065C55.3453 0.964214 55.9235 0.796891 56.6752 0.756727C56.8496 0.747648 56.6225 0.428497 56.7897 0.407857C57.6579 0.305346 58.5633 0.283144 59.4239 0.388453C59.6153 0.412709 59.4548 0.704493 59.5469 0.730593C59.9522 0.842493 60.0157 0.303444 60.4047 0.401782C60.4866 0.421874 60.4518 0.666387 60.4677 0.692364C60.7164 1.10023 60.8909 0.499472 60.9499 0.48391C61.6942 0.27419 62.1966 0.875319 62.9173 0.764601C63.0037 0.750782 62.7983 0.449907 63.042 0.429871C64.6647 0.294733 66.3892 0.348661 67.9979 0.587185C68.2482 0.623881 68.0706 0.855363 68.0865 0.883732C68.3441 1.32706 68.5073 0.731396 68.589 0.708837C69.2324 0.546395 69.8292 1.04841 70.271 0.342515C72.9917 0.608675 75.7202 0.290164 78.3876 1.06013C78.4214 1.0692 78.3455 1.359 78.4129 1.37583C79.2247 1.58242 79.0903 1.11945 79.6678 0.593262C79.8134 0.461184 80.1914 1.15745 80.225 1.20898C80.3484 1.39847 80.1831 1.82563 80.226 1.86346C80.5799 2.16184 80.6081 0.717824 81.1121 0.749326C81.1276 0.752732 81.0447 1.01353 81.0851 1.04258C81.2106 1.13367 81.3472 1.03681 81.4694 1.13648C81.749 1.36706 81.8051 2.07328 82.2805 1.6975C82.3408 1.64874 82.3114 0.825868 82.7575 0.896717C82.8781 0.916352 83.2828 0.943095 83.5991 0.981062C83.748 0.998908 83.8771 1.01913 83.9469 1.04168C84.1643 1.11193 83.9914 1.36287 84.0064 1.3755C84.5746 1.77056 84.337 1.89674 84.5926 2.43557C84.8475 2.97272 84.8665 1.74338 84.9996 1.61708C85.1328 1.49111 85.5449 1.81514 85.6432 1.92423C85.7416 2.03325 85.5935 2.18856 85.6837 2.25327C86.2816 2.67735 86.0144 1.67115 86.24 1.49573C86.7731 1.0807 87.0728 2.02231 87.5122 2.15381C87.6312 2.18939 87.552 1.97363 87.6619 1.96472C88.0975 1.93238 88.3267 2.24014 88.8397 2.03028C88.9234 1.99605 89.3737 1.49211 89.5874 1.91804C89.6174 1.97938 89.4915 2.19417 89.6685 2.26371C89.9328 2.36788 90.4178 2.46941 90.7185 2.42598C90.9405 2.39377 90.7334 1.99536 90.9928 2.14047C91.108 2.20524 90.8603 2.3979 91.0785 2.50147C91.2952 2.60474 91.8735 2.65987 92.0936 2.67751C92.3135 2.69482 92.2258 2.39961 92.2457 2.38266C92.3653 2.28618 92.8013 2.19899 92.8388 2.20376C94.7207 2.38812 96.3873 3.07975 98.228 3.16543C98.3727 3.17264 98.317 2.86372 98.3394 2.86177C98.8458 2.80324 98.3545 3.53899 98.6601 3.84839C98.6918 3.24081 98.8783 3.37659 99.2311 3.35747C99.4019 3.3479 99.343 3.1029 99.3614 3.08115C99.6567 2.76147 99.7658 3.24147 99.797 3.34088C99.9127 3.70669 100.146 3.32542 100.224 3.57027C100.303 3.81338 100.003 4.11581 100.332 4.15713C100.454 3.95498 100.287 3.35902 100.551 3.30291C101.547 3.08971 103.249 3.78465 104 3.94274C104.752 4.10032 105.003 4.0975 105.431 4.24096C106.21 4.50155 105.979 4.04128 106.502 3.92559C107.027 3.81059 106.631 4.79779 106.668 5.0287C106.705 5.25938 106.816 5.04463 106.885 5.17887C106.953 5.31303 106.743 5.43394 106.94 5.51053C107.138 5.58713 107.751 5.28088 107.861 5.06246C108.09 4.59878 107.917 4.04832 108.431 4.31175C108.46 4.32722 108.318 4.5807 108.432 4.62631C109.343 4.97942 110.327 5.14705 111.237 5.47873C111.363 5.52499 111.199 5.80571 111.272 5.83602C112.03 6.15225 111.827 5.6029 112.345 5.1108C112.128 5.84089 112.3 6.33578 112.893 6.43486C113.248 6.49449 113.239 6.15913 113.509 5.96687C113.59 5.90889 113.809 6.17308 113.879 6.02723C114.11 5.55078 113.961 4.95228 114.538 5.27333C114.564 5.28829 114.433 5.54844 114.524 5.58009C115.116 5.78611 115.258 5.27189 115.928 5.31389C116.444 5.34539 117.297 5.80874 117.875 5.95355C117.733 6.7905 118.302 6.68378 118.623 6.14159C118.998 6.22493 119.405 6.25514 119.76 6.39205C119.881 6.43868 119.761 6.66884 119.773 6.69753C119.951 7.1466 120.199 6.60861 120.286 6.59944C120.546 6.57776 120.781 6.60362 121.003 6.64542L120.976 6.64194C121.585 6.72543 122.088 6.91773 122.746 6.6841C122.778 6.67232 122.893 6.09156 123.074 6.54465C123.085 6.57577 122.775 6.8115 123.172 6.87621C123.558 6.93961 124.295 7.34136 124.867 7.13397C124.998 7.08315 125.414 6.65054 125.638 7.05472C125.668 7.10955 125.608 7.27261 125.649 7.37239C125.781 7.6906 125.945 7.11028 126.077 7.63692C126.21 8.16367 126.591 8.59329 127.176 8.31758C127.192 8.30945 127.39 7.85889 127.567 7.88994C127.852 7.94032 128.218 8.08938 128.518 8.1282C128.661 8.14642 128.61 7.8432 128.636 7.84134C129.593 7.81012 130.236 8.16975 131.212 8.44237C131.4 8.49436 131.985 8.18612 132.293 8.56134C132.627 8.97232 131.972 10.3158 132.916 10.1401C133.287 10.0701 134.1 8.36438 134.557 9.42768C135.851 9.46178 136.876 10.2088 138.179 10.2623C138.238 10.2652 138.568 9.83448 138.694 9.88293C138.886 9.95754 138.916 10.2195 139.044 10.2798C139.589 10.5434 140.179 10.5509 140.707 10.8029C140.906 10.8978 140.74 11.0956 140.977 11.2102C141.211 11.3245 141.502 11.0965 141.765 11.3822C141.925 11.5563 141.943 12.0512 142.102 12.351C142.126 12.3626 142.201 12.3844 142.227 12.3915C142.281 12.4574 142.343 12.5098 142.414 12.5403C142.563 11.9024 142.805 11.9699 143.264 11.8687C143.351 11.8487 143.299 11.6098 143.342 11.5887C143.516 11.4975 143.634 11.7054 143.802 11.5995C143.842 11.574 143.874 11.3529 143.909 11.3195C144.2 11.0273 144.555 11.5745 144.619 11.6695C144.86 12.0309 145.021 11.7554 145.222 11.9078C145.421 12.0598 145.086 12.1899 145.327 12.2944C145.83 12.5108 146.499 12.5386 147.022 12.6027C147.231 12.627 147.119 12.3156 147.15 12.3122C147.592 12.2817 147.993 12.6456 148.302 12.0837C148.423 13.6451 148.582 11.9648 149.166 12.3502C149.212 12.3813 149.178 13.1093 148.979 13.191C148.781 13.2725 148.529 13.0123 148.251 13.1471C148.185 13.1784 147.761 13.815 147.71 13.8511C147.305 14.1306 147.368 13.0464 147.354 12.9848C147.197 12.321 146.689 13.0066 146.573 13.046C146.032 13.2253 145.605 13.0308 145.15 13.1507C144.851 13.2275 144.748 13.9315 144.52 13.8848C143.749 13.7243 143.634 12.7145 142.746 13.4378C142.55 13.5872 142.576 14.3902 142.077 13.6635C142.067 13.6497 142.03 13.5818 141.975 13.501C141.908 13.4826 141.715 13.4261 141.652 13.3959C141.577 13.1945 141.43 12.9133 141.183 13.0754C141.138 13.1046 141.049 13.3127 141.006 13.3148C140.722 13.3256 140.64 13.093 140.357 13.0657C140.076 13.0393 139.732 13.0353 139.487 12.8549C139.336 12.7449 139.278 12.2705 139.23 12.1418C139.106 11.7766 138.691 12.1461 138.668 11.7564C138.638 11.3629 139.112 10.9439 138.792 10.5872C138.589 11.1396 138.363 11.7009 138.153 12.2546C137.339 11.9601 136.56 11.5447 135.68 11.3566C135.573 11.3346 135.607 11.6683 135.491 11.6528C134.989 11.584 134.612 11.2689 134.082 11.2495C133.668 11.2353 133.16 11.4766 132.734 11.4827C132.596 10.7711 131.93 10.8831 131.484 10.7457C131.329 10.6979 131.369 10.5223 131.263 10.4452C130.861 10.1586 130.968 10.7796 130.833 10.8524C130.279 11.1677 130.425 9.827 129.824 9.76893C129.793 9.76534 129.294 10.4167 129.232 10.4529C128.841 10.6902 129.206 10.1965 129.003 10.1132C128.637 9.96232 128.369 9.75121 127.888 9.8974C127.747 9.94096 127.367 10.3411 127.145 9.96273C127.116 9.91316 127.167 9.68047 127.14 9.66296C126.671 9.36783 126.566 10.1064 126.246 10.3201C125.921 10.5332 125.549 9.9686 125.477 9.81043C125.289 9.40078 125.677 9.66967 125.693 9.63383C125.896 9.20734 125.569 9.24455 125.325 9.17677C125.378 8.44668 125.02 8.44781 125.07 9.1094C125.076 9.18173 125.279 9.13755 125.325 9.17677C125.021 9.86238 124.621 9.90694 124.288 9.19327C124.127 8.85836 124.36 8.51618 123.736 8.57963C123.449 8.608 123.502 9.12059 123.25 9.23036C122.678 9.48116 121.999 8.93517 121.434 8.95027C121.225 8.95532 121.398 9.25046 121.254 9.26336C121.064 9.28079 120.89 9.23037 120.714 9.18318C120.695 9.18038 120.639 9.17497 120.62 9.17129C120.45 9.11578 120.277 9.06318 120.079 9.08671C120.043 9.09128 120.083 9.38927 119.964 9.37481C119.074 9.27199 118.324 8.96725 117.406 8.8168C116.954 8.74287 116.135 8.77364 115.681 8.6687C114.886 8.48722 113.973 7.91635 113.276 7.90813C112.817 7.9009 112.871 8.20182 112.651 8.36564C112.226 8.6838 111.676 7.90523 111.609 7.78753C111.607 7.78369 111.997 7.7768 111.818 7.59838C111.749 7.27492 111.613 7.78689 111.609 7.78753C111.565 7.71131 110.805 7.52464 110.647 7.55558C110.56 7.57241 110.564 7.84964 110.519 7.85331C109.458 7.9334 108.429 7.84266 107.411 7.55653C107.394 7.54825 107.468 7.25033 107.426 7.23462C106.85 7.00842 106.406 7.31892 105.88 7.46377C105.356 7.60877 104.97 7.47563 104.758 6.91324C104.378 6.92319 103.872 6.61359 103.587 6.4294C103.301 6.24494 103.171 6.82755 103.142 6.83523C102.24 7.08403 101.805 6.67707 100.935 6.50035C100.523 6.41537 99.684 6.38553 99.2246 6.38843C98.8603 6.39144 98.6644 6.22408 98.3248 6.26827C98.2788 6.2741 98.2882 6.54276 98.2733 6.55105C97.8652 6.81607 98.1271 6.19767 98.0669 6.07283C97.8484 5.61913 97.7057 5.37392 97.2113 5.50851C97.0969 5.53917 96.6607 6.42285 96.4565 6.45144C96.1911 6.48691 96.3298 6.16767 96.0518 6.2136C96.028 6.21724 96.0066 6.42241 95.8424 6.39226C95.0788 6.25488 94.2555 6.03173 93.4532 5.95639C93.3439 5.94535 93.4447 6.28692 93.2864 6.27635C92.5426 6.22646 91.7347 6.12097 91.0306 5.88859C90.8577 5.83041 90.9941 5.61508 90.9631 5.5432C90.7717 5.10785 90.3707 5.66564 90.3144 5.67103C88.9651 5.81425 88.0101 5.17322 86.6399 5.30381C86.5646 5.31184 85.9448 5.89868 85.7427 5.32899C85.729 5.29103 85.5291 4.70858 85.2756 5.07268C85.2599 5.09549 85.3897 5.39732 85.1221 5.34461C84.8544 5.29196 84.4045 5.44822 84.0585 5.1012C83.9493 4.99185 83.7144 4.41007 83.3291 4.82907C83.3263 4.83226 83.3166 4.84653 83.3012 4.86851C83.1739 5.04859 82.6709 5.74876 82.5445 5.11611C82.5217 4.99936 82.6075 4.26491 82.1613 4.61271C82.0762 4.68029 82.2097 4.85477 81.992 4.94258C81.6573 5.07801 81.242 4.85175 80.8248 5.15469C80.7522 5.20836 80.4261 5.68987 80.2136 5.29588C80.1802 5.23417 80.2655 4.99237 80.1423 4.95727C79.557 4.78931 78.9245 4.91922 78.3311 4.7183C78.1208 4.64767 78.25 4.25511 78.0315 4.13738C77.8129 4.01963 77.3665 3.89594 77.1249 4.06766C76.8832 4.23943 77.1108 4.88502 76.759 4.92075C75.2344 5.07684 73.7443 4.65871 72.2266 4.57658C72.0019 4.56447 72.1844 4.79485 71.8531 4.79366C70.6302 4.78791 68.5257 4.99411 67.4613 4.52206C66.6072 4.14266 67.6762 3.83861 67.0232 3.68721C66.7068 3.61522 66.3758 4.35815 66.3008 4.38248C65.5654 4.62914 65.0448 4.31229 64.381 4.42855C64.244 4.45274 64.3862 4.74862 64.2696 4.76593C63.8718 4.82773 63.4491 4.70605 63.0682 4.74246C62.8974 4.75952 62.9363 4.98698 62.7785 4.97449C62.4009 4.94736 62.0651 4.86327 61.6893 4.66338C61.655 4.64517 61.8702 4.35226 61.5905 4.35253C61.1381 4.35386 60.5669 4.16672 60.0569 4.40941C59.9055 4.48237 59.9251 5.00428 59.5762 4.66032C59.5031 4.58858 59.5599 3.95735 59.2012 4.51852C59.1402 4.61166 58.5331 5.37613 58.1893 4.92408C58.0986 4.80502 57.8544 4.30493 57.6734 4.39658C57.649 4.41093 57.7664 4.68502 57.6145 4.72154C57.0788 4.84546 56.5104 4.852 55.9607 4.97785C55.8142 5.01203 56.0547 5.2865 55.8359 5.32822C55.2345 5.44334 54.4723 5.42599 53.8716 5.38266C53.6501 5.36612 53.7822 5.1143 53.7643 5.08947C53.4736 4.68554 53.3682 5.27086 53.2862 5.31121C52.7748 5.55468 52.349 5.32039 51.8684 5.43491C51.7357 5.46583 51.8554 5.73024 51.8309 5.75697C51.5753 6.01965 51.7375 5.51093 51.557 5.47279C51.0506 5.36448 50.5043 5.43821 50.0097 5.52201C49.8282 5.55321 50.0648 5.84917 49.9016 5.87354C48.9384 6.02372 47.9285 6.10023 46.9634 6.03271C46.7816 6.01945 46.8661 5.7637 46.8227 5.71236C46.5223 5.35278 46.2069 5.92605 46.1266 5.98659C45.7617 6.26267 45.5843 6.06588 45.2424 6.1476C44.7414 6.26856 44.2047 6.36446 43.6507 6.44429C42.3586 6.6302 40.9869 6.72749 39.8602 6.82544C37.7635 7.00983 36.1117 7.02773 34.1372 7.407C34.0118 7.43085 34.1907 7.73163 34.0834 7.75631C32.6941 8.06078 31.2936 8.16769 29.9071 8.50476C29.7929 8.53192 30.0122 8.80687 29.8309 8.86068C29.4591 8.97324 28.9805 9.04065 28.5779 9.01234C28.3826 8.99893 28.5869 8.69356 28.3912 8.68541C27.937 8.66563 27.4619 8.72896 27.0214 8.85949C26.8345 8.91565 27.1789 9.17363 26.9317 9.22242C25.2451 9.56221 23.5952 9.92968 21.8063 9.86294C21.6836 9.85834 21.457 9.24912 21.2326 9.41857C21.2483 9.5969 21.2897 9.80214 21.3183 9.99042C18.8747 10.5757 16.3981 10.858 13.9287 11.3522C13.8252 11.373 14.0746 11.667 13.875 11.7089C12.7111 11.9537 11.6118 12.2906 10.3451 12.2274C10.2204 12.2215 10.1468 11.6252 9.82626 11.7898C9.82127 11.7924 9.81284 11.7963 9.80157 11.8014C9.67468 11.8556 9.25432 12.029 9.1561 12.1726C9.14182 12.1959 9.30025 12.4461 9.1309 12.4928C8.16257 12.7559 7.13065 12.9288 6.1335 12.9949C5.97155 13.0053 6.06646 12.6765 5.95104 12.6813C5.13532 12.7179 4.33613 13.151 3.60653 13.0896C3.13539 13.0472 3.13568 12.5083 2.74884 12.1101C2.67589 12.0593 2.5096 12.1222 2.37183 11.8676C1.92439 11.2715 1.73203 10.4496 1.26067 9.80956C1.21449 9.738 0.945639 9.88614 0.712174 10.0648C0.605324 10.144 0.566547 10.157 0.53323 10.1284C0.50847 10.094 0.430232 10.0707 0.535797 9.83503C0.542738 9.80554 0.802713 9.54017 0.99601 9.37676C1.19157 9.20539 1.31853 9.08098 1.358 8.9882C1.41 8.86281 1.13775 8.65038 1.27012 8.46413C1.40432 8.27905 1.65679 8.45562 1.83223 8.24652C1.99939 8.03994 1.81505 7.73843 2.21651 7.57804ZM102.29 5.60453C102.046 5.28054 101.855 6.3107 102.199 6.10715C102.216 6.09609 102.303 5.62053 102.29 5.60453ZM136.763 10.7925C136.52 10.2489 136.115 10.8479 136.27 11.2556C136.428 11.6644 136.833 10.9564 136.763 10.7925ZM140.465 11.6972C140.2 11.1942 139.584 12.5469 140.116 12.4407C140.146 12.4349 140.48 11.7264 140.465 11.6972ZM3.85038 11.6211C3.84082 11.6091 3.62246 11.6555 3.61834 11.6711C3.59293 12.0232 4.03311 11.929 3.85038 11.6211ZM144.432 12.417C144.317 12.2023 143.891 12.3827 144.032 12.652C144.148 12.8694 144.577 12.685 144.432 12.417ZM87.4757 2.66363C87.4726 2.64765 87.307 2.61776 87.302 2.70588C87.2866 2.98966 87.5261 2.93202 87.4757 2.66363ZM150.98 13.1873C150.041 12.9726 149.615 11.6759 150.666 11.976C150.854 12.0311 150.189 12.2968 150.418 12.4445C150.829 12.7131 151.257 12.0047 151.641 12.4944C151.707 12.5827 151.032 13.2013 150.978 13.1887C150.978 13.1882 150.979 13.1878 150.98 13.1873ZM102.305 4.3363C102.301 4.32177 102.073 4.27577 102.066 4.28857C101.894 4.59969 102.353 4.69249 102.305 4.3363ZM77.7504 1.31579C77.7389 1.28554 77.2007 1.23346 77.182 1.26003C76.8776 1.79024 77.9622 1.89685 77.7504 1.31579ZM117.881 5.97736C118.184 5.68687 118.483 5.69416 118.621 6.14099C118.371 6.07902 118.129 6.03743 117.881 5.97736Z" fill="#F6AE2D"/>
</svg>
