<svg width="50" height="51" viewBox="0 0 50 51" fill="none" xmlns="http://www.w3.org/2000/svg">
<path d="M25 8.2168C24.0054 8.2168 23.0516 8.61189 22.3483 9.31515C21.6451 10.0184 21.25 10.9722 21.25 11.9668C21.25 12.9614 21.6451 13.9152 22.3483 14.6184C23.0516 15.3217 24.0054 15.7168 25 15.7168C25.9946 15.7168 26.9484 15.3217 27.6517 14.6184C28.3549 13.9152 28.75 12.9614 28.75 11.9668C28.75 10.9722 28.3549 10.0184 27.6517 9.31515C26.9484 8.61189 25.9946 8.2168 25 8.2168ZM18.75 11.9668C18.75 10.3092 19.4085 8.71948 20.5806 7.54738C21.7527 6.37528 23.3424 5.7168 25 5.7168C26.6576 5.7168 28.2473 6.37528 29.4194 7.54738C30.5915 8.71948 31.25 10.3092 31.25 11.9668C31.25 13.6244 30.5915 15.2141 29.4194 16.3862C28.2473 17.5583 26.6576 18.2168 25 18.2168C23.3424 18.2168 21.7527 17.5583 20.5806 16.3862C19.4085 15.2141 18.75 13.6244 18.75 11.9668ZM38.75 10.7168C38.087 10.7168 37.4511 10.9802 36.9822 11.449C36.5134 11.9179 36.25 12.5538 36.25 13.2168C36.25 13.8798 36.5134 14.5157 36.9822 14.9846C37.4511 15.4534 38.087 15.7168 38.75 15.7168C39.413 15.7168 40.0489 15.4534 40.5178 14.9846C40.9866 14.5157 41.25 13.8798 41.25 13.2168C41.25 12.5538 40.9866 11.9179 40.5178 11.449C40.0489 10.9802 39.413 10.7168 38.75 10.7168ZM33.75 13.2168C33.75 11.8907 34.2768 10.6189 35.2145 9.68126C36.1521 8.74358 37.4239 8.2168 38.75 8.2168C40.0761 8.2168 41.3479 8.74358 42.2855 9.68126C43.2232 10.6189 43.75 11.8907 43.75 13.2168C43.75 14.5429 43.2232 15.8146 42.2855 16.7523C41.3479 17.69 40.0761 18.2168 38.75 18.2168C37.4239 18.2168 36.1521 17.69 35.2145 16.7523C34.2768 15.8146 33.75 14.5429 33.75 13.2168ZM8.75 13.2168C8.75 12.5538 9.01339 11.9179 9.48223 11.449C9.95107 10.9802 10.587 10.7168 11.25 10.7168C11.913 10.7168 12.5489 10.9802 13.0178 11.449C13.4866 11.9179 13.75 12.5538 13.75 13.2168C13.75 13.8798 13.4866 14.5157 13.0178 14.9846C12.5489 15.4534 11.913 15.7168 11.25 15.7168C10.587 15.7168 9.95107 15.4534 9.48223 14.9846C9.01339 14.5157 8.75 13.8798 8.75 13.2168ZM11.25 8.2168C9.92392 8.2168 8.65215 8.74358 7.71447 9.68126C6.77678 10.6189 6.25 11.8907 6.25 13.2168C6.25 14.5429 6.77678 15.8146 7.71447 16.7523C8.65215 17.69 9.92392 18.2168 11.25 18.2168C12.5761 18.2168 13.8479 17.69 14.7855 16.7523C15.7232 15.8146 16.25 14.5429 16.25 13.2168C16.25 11.8907 15.7232 10.6189 14.7855 9.68126C13.8479 8.74358 12.5761 8.2168 11.25 8.2168ZM12.75 38.2118L12.5 38.2168C11.1739 38.2168 9.90215 37.69 8.96447 36.7523C8.02678 35.8146 7.5 34.5429 7.5 33.2168V23.8418C7.5 23.676 7.56585 23.5171 7.68306 23.3999C7.80027 23.2826 7.95924 23.2168 8.125 23.2168H12.535C12.635 22.2993 12.96 21.4468 13.4475 20.7168H8.125C6.4 20.7168 5 22.1168 5 23.8418V33.2168C4.99988 34.2871 5.22885 35.345 5.6715 36.3195C6.11416 37.294 6.76026 38.1624 7.56639 38.8665C8.37251 39.5705 9.31999 40.0939 10.3452 40.4014C11.3703 40.7089 12.4495 40.7934 13.51 40.6493C13.1741 39.8649 12.9195 39.0481 12.75 38.2118ZM36.49 40.6493C36.82 40.6943 37.1567 40.7168 37.5 40.7168C39.4891 40.7168 41.3968 39.9266 42.8033 38.5201C44.2098 37.1136 45 35.2059 45 33.2168V23.8418C45 22.1168 43.6 20.7168 41.875 20.7168H36.5525C37.0425 21.4468 37.365 22.2993 37.465 23.2168H41.875C42.0408 23.2168 42.1997 23.2826 42.3169 23.3999C42.4342 23.5171 42.5 23.676 42.5 23.8418V33.2168C42.5002 33.8946 42.3625 34.5653 42.0955 35.1882C41.8284 35.8111 41.4375 36.3733 40.9465 36.8405C40.4554 37.3076 39.8746 37.6701 39.2391 37.9059C38.6037 38.1416 37.9269 38.2457 37.25 38.2118C37.0805 39.0481 36.8259 39.8649 36.49 40.6493ZM18.125 20.7168C16.4 20.7168 15 22.1168 15 23.8418V35.7168C15 38.369 16.0536 40.9125 17.9289 42.7879C19.8043 44.6632 22.3478 45.7168 25 45.7168C27.6522 45.7168 30.1957 44.6632 32.0711 42.7879C33.9464 40.9125 35 38.369 35 35.7168V23.8418C35 22.1168 33.6 20.7168 31.875 20.7168H18.125ZM17.5 23.8418C17.5 23.676 17.5658 23.5171 17.6831 23.3999C17.8003 23.2826 17.9592 23.2168 18.125 23.2168H31.875C32.0408 23.2168 32.1997 23.2826 32.3169 23.3999C32.4342 23.5171 32.5 23.676 32.5 23.8418V35.7168C32.5 37.7059 31.7098 39.6136 30.3033 41.0201C28.8968 42.4266 26.9891 43.2168 25 43.2168C23.0109 43.2168 21.1032 42.4266 19.6967 41.0201C18.2902 39.6136 17.5 37.7059 17.5 35.7168V23.8418Z" fill="white"/>
</svg>
