<svg width="12" height="12" viewBox="0 0 12 12" fill="none" xmlns="http://www.w3.org/2000/svg">
<path d="M6 1C8.7615 1 11 3.2385 11 6C11 8.7615 8.7615 11 6 11C3.2385 11 1 8.7615 1 6C1 3.2385 3.2385 1 6 1ZM7.61 4.485L5.375 6.72L4.39 5.735C4.31891 5.66876 4.22489 5.6327 4.12774 5.63441C4.03059 5.63613 3.9379 5.67548 3.86919 5.74419C3.80048 5.8129 3.76113 5.90559 3.75941 6.00274C3.7577 6.09989 3.79376 6.19391 3.86 6.265L5.11 7.515C5.18031 7.58523 5.27562 7.62467 5.375 7.62467C5.47438 7.62467 5.56969 7.58523 5.64 7.515L8.14 5.015C8.17684 4.98067 8.20639 4.93927 8.22689 4.89327C8.24739 4.84727 8.25841 4.79761 8.2593 4.74726C8.26018 4.69691 8.25092 4.6469 8.23206 4.6002C8.2132 4.55351 8.18513 4.51109 8.14952 4.47548C8.11391 4.43987 8.07149 4.4118 8.0248 4.39294C7.9781 4.37408 7.92809 4.36482 7.87774 4.3657C7.82739 4.36659 7.77773 4.37761 7.73173 4.39811C7.68573 4.41861 7.64433 4.44816 7.61 4.485Z" fill="white"/>
</svg>
