<svg width="39" height="38" viewBox="0 0 39 38" fill="none" xmlns="http://www.w3.org/2000/svg">
<path d="M7.52083 0.25C5.7251 0.25 4.00291 0.963353 2.73313 2.23313C1.46335 3.50291 0.75 5.2251 0.75 7.02083V30.9792C0.75 32.7749 1.46335 34.4971 2.73313 35.7669C4.00291 37.0366 5.7251 37.75 7.52083 37.75H31.4792C33.2749 37.75 34.9971 37.0366 36.2669 35.7669C37.5366 34.4971 38.25 32.7749 38.25 30.9792V7.02083C38.25 5.2251 37.5366 3.50291 36.2669 2.23313C34.9971 0.963353 33.2749 0.25 31.4792 0.25H7.52083ZM28.4167 14.375L18 24.7917C17.707 25.0843 17.3099 25.2486 16.8958 25.2486C16.4818 25.2486 16.0846 25.0843 15.7917 24.7917L11.6167 20.6167C11.4632 20.4736 11.34 20.3011 11.2546 20.1095C11.1692 19.9178 11.1233 19.7109 11.1196 19.5011C11.1159 19.2913 11.1545 19.0829 11.2331 18.8883C11.3117 18.6938 11.4286 18.517 11.577 18.3687C11.7254 18.2203 11.9021 18.1033 12.0967 18.0247C12.2912 17.9462 12.4996 17.9076 12.7094 17.9113C12.9192 17.915 13.1261 17.9609 13.3178 18.0463C13.5095 18.1317 13.682 18.2548 13.825 18.4083L16.8958 21.4771L26.2083 12.1646C26.3525 12.0154 26.525 11.8965 26.7157 11.8147C26.9063 11.7329 27.1114 11.6899 27.3189 11.6882C27.5263 11.6865 27.7321 11.7261 27.9241 11.8047C28.116 11.8834 28.2904 11.9995 28.4371 12.1463C28.5837 12.293 28.6997 12.4676 28.7781 12.6596C28.8566 12.8517 28.896 13.0575 28.8941 13.2649C28.8922 13.4724 28.849 13.6774 28.7671 13.868C28.6851 14.0586 28.566 14.2309 28.4167 14.375Z" fill="black"/>
</svg>
