<svg width="60" height="60" viewBox="0 0 60 60" fill="none" xmlns="http://www.w3.org/2000/svg">
<rect x="0.5" y="0.5" width="59" height="59" rx="29.5" fill="#D2DEE4"/>
<rect x="0.5" y="0.5" width="59" height="59" rx="29.5" stroke="#042B73"/>
<path d="M24 15C24 14.7348 24.1054 14.4804 24.2929 14.2929C24.4804 14.1054 24.7348 14 25 14H29C29.2652 14 29.5196 14.1054 29.7071 14.2929C29.8946 14.4804 30 14.7348 30 15V16H31C31.2652 16 31.5196 16.1054 31.7071 16.2929C31.8946 16.4804 32 16.7348 32 17V20.06C32.073 20.0512 32.1468 20.0506 32.22 20.058C34.9225 20.3126 37.4776 21.4068 39.5267 23.1871C41.5759 24.9674 43.0163 27.3444 43.646 29.9849C44.2758 32.6253 44.0632 35.3966 43.038 37.9101C42.0129 40.4236 40.2267 42.5531 37.93 44H43C43.2652 44 43.5196 44.1054 43.7071 44.2929C43.8946 44.4804 44 44.7348 44 45C44 45.2652 43.8946 45.5196 43.7071 45.7071C43.5196 45.8946 43.2652 46 43 46H17C16.7348 46 16.4804 45.8946 16.2929 45.7071C16.1054 45.5196 16 45.2652 16 45C16 44.7348 16.1054 44.4804 16.2929 44.2929C16.4804 44.1054 16.7348 44 17 44H31C33.8337 44.0044 36.5598 42.9151 38.6102 40.9591C40.6605 39.0031 41.8769 36.3313 42.0059 33.5005C42.1348 30.6697 41.1663 27.8984 39.3023 25.7641C37.4382 23.6298 34.8224 22.2972 32 22.044V33C32 33.2652 31.8946 33.5196 31.7071 33.7071C31.5196 33.8946 31.2652 34 31 34H30V35C30 35.7956 29.6839 36.5587 29.1213 37.1213C28.5587 37.6839 27.7956 38 27 38C26.2044 38 25.4413 37.6839 24.8787 37.1213C24.3161 36.5587 24 35.7956 24 35V34H23C22.7348 34 22.4804 33.8946 22.2929 33.7071C22.1054 33.5196 22 33.2652 22 33V17C22 16.7348 22.1054 16.4804 22.2929 16.2929C22.4804 16.1054 22.7348 16 23 16H24V15ZM26 34V35C26 35.2652 26.1054 35.5196 26.2929 35.7071C26.4804 35.8946 26.7348 36 27 36C27.2652 36 27.5196 35.8946 27.7071 35.7071C27.8946 35.5196 28 35.2652 28 35V34H26ZM21 40C20.7348 40 20.4804 40.1054 20.2929 40.2929C20.1054 40.4804 20 40.7348 20 41C20 41.2652 20.1054 41.5196 20.2929 41.7071C20.4804 41.8946 20.7348 42 21 42H33C33.2652 42 33.5196 41.8946 33.7071 41.7071C33.8946 41.5196 34 41.2652 34 41C34 40.7348 33.8946 40.4804 33.7071 40.2929C33.5196 40.1054 33.2652 40 33 40H21Z" fill="#042B73"/>
</svg>
