<svg width="60" height="60" viewBox="0 0 60 60" fill="none" xmlns="http://www.w3.org/2000/svg">
<rect x="0.5" y="0.5" width="59" height="59" rx="29.5" fill="#D2DEE4"/>
<rect x="0.5" y="0.5" width="59" height="59" rx="29.5" stroke="#042B73"/>
<path d="M33.9965 18C33.9965 19.0609 33.5751 20.0783 32.8249 20.8284C32.0748 21.5786 31.0574 22 29.9965 22C28.9356 22 27.9182 21.5786 27.1681 20.8284C26.4179 20.0783 25.9965 19.0609 25.9965 18C25.9965 16.9391 26.4179 15.9217 27.1681 15.1716C27.9182 14.4214 28.9356 14 29.9965 14C31.0574 14 32.0748 14.4214 32.8249 15.1716C33.5751 15.9217 33.9965 16.9391 33.9965 18ZM23.9965 39.568V43C23.9965 43.7956 24.3126 44.5587 24.8752 45.1213C25.4378 45.6839 26.2008 46 26.9965 46H32.9965C33.7921 46 34.5552 45.6839 35.1178 45.1213C35.6804 44.5587 35.9965 43.7956 35.9965 43V39.568C35.9965 39.4336 36.0236 39.3005 36.0762 39.1768C36.1287 39.0531 36.2057 38.9413 36.3025 38.848L43.7085 31.72C43.852 31.5817 43.9509 31.4036 43.9925 31.2086C44.0341 31.0136 44.0165 30.8107 43.9419 30.6258C43.8673 30.441 43.7391 30.2826 43.5739 30.1711C43.4087 30.0596 43.2138 30 43.0145 30H16.9785C16.7793 30.0004 16.5848 30.0603 16.4199 30.1719C16.2549 30.2836 16.1271 30.442 16.0527 30.6267C15.9784 30.8115 15.9609 31.0143 16.0026 31.2091C16.0442 31.4039 16.1431 31.5818 16.2865 31.72L23.6905 38.848C23.7876 38.9411 23.865 39.0529 23.9179 39.1766C23.9708 39.3003 23.9962 39.4334 23.9965 39.568ZM26.9965 24C26.2008 24 25.4378 24.3161 24.8752 24.8787C24.3126 25.4413 23.9965 26.2044 23.9965 27V28H35.9965V27C35.9965 26.2044 35.6804 25.4413 35.1178 24.8787C34.5552 24.3161 33.7921 24 32.9965 24H26.9965Z" fill="#042B73"/>
</svg>
