<svg width="60" height="60" viewBox="0 0 60 60" fill="none" xmlns="http://www.w3.org/2000/svg">
<rect x="0.5" y="0.5" width="59" height="59" rx="29.5" fill="#D2DEE4"/>
<rect x="0.5" y="0.5" width="59" height="59" rx="29.5" stroke="#042B73"/>
<path d="M37.5 12.5H22.5C21.1739 12.5 19.9021 13.0268 18.9645 13.9645C18.0268 14.9021 17.5 16.1739 17.5 17.5V42.5C17.5 43.8261 18.0268 45.0979 18.9645 46.0355C19.9021 46.9732 21.1739 47.5 22.5 47.5H41.25C41.5815 47.5 41.8995 47.3683 42.1339 47.1339C42.3683 46.8995 42.5 46.5815 42.5 46.25C42.5 45.9185 42.3683 45.6005 42.1339 45.3661C41.8995 45.1317 41.5815 45 41.25 45H22.5C21.837 45 21.2011 44.7366 20.7322 44.2678C20.2634 43.7989 20 43.163 20 42.5V42.4925H41.25C41.5815 42.4925 41.8995 42.3608 42.1339 42.1264C42.3683 41.892 42.5 41.574 42.5 41.2425V17.5C42.5 16.1739 41.9732 14.9021 41.0355 13.9645C40.0979 13.0268 38.8261 12.5 37.5 12.5ZM22.5 18.75H37.5C37.8315 18.75 38.1495 18.8817 38.3839 19.1161C38.6183 19.3505 38.75 19.6685 38.75 20V22.5C38.75 22.8315 38.6183 23.1495 38.3839 23.3839C38.1495 23.6183 37.8315 23.75 37.5 23.75H22.5C22.1685 23.75 21.8505 23.6183 21.6161 23.3839C21.3817 23.1495 21.25 22.8315 21.25 22.5V20C21.25 19.6685 21.3817 19.3505 21.6161 19.1161C21.8505 18.8817 22.1685 18.75 22.5 18.75Z" fill="#042B73"/>
</svg>
