<svg width="60" height="60" viewBox="0 0 60 60" fill="none" xmlns="http://www.w3.org/2000/svg">
<rect x="0.5" y="0.5" width="59" height="59" rx="29.5" fill="#D2DEE4"/>
<rect x="0.5" y="0.5" width="59" height="59" rx="29.5" stroke="#042B73"/>
<path d="M48.0001 21C48.0001 23.3869 47.0519 25.6761 45.3641 27.364C43.6762 29.0518 41.387 30 39.0001 30C36.6132 30 34.324 29.0518 32.6361 27.364C30.9483 25.6761 30.0001 23.3869 30.0001 21C30.0001 18.6131 30.9483 16.3239 32.6361 14.636C34.324 12.9482 36.6132 12 39.0001 12C41.387 12 43.6762 12.9482 45.3641 14.636C47.0519 16.3239 48.0001 18.6131 48.0001 21ZM43.7081 17.292C43.6152 17.1989 43.5049 17.125 43.3834 17.0746C43.2619 17.0242 43.1316 16.9982 43.0001 16.9982C42.8686 16.9982 42.7383 17.0242 42.6168 17.0746C42.4953 17.125 42.385 17.1989 42.2921 17.292L37.0001 22.586L35.7081 21.292C35.5203 21.1042 35.2657 20.9987 35.0001 20.9987C34.7346 20.9987 34.4799 21.1042 34.2921 21.292C34.1043 21.4798 33.9988 21.7344 33.9988 22C33.9988 22.2656 34.1043 22.5202 34.2921 22.708L36.2921 24.708C36.385 24.8011 36.4953 24.875 36.6168 24.9254C36.7383 24.9758 36.8686 25.0018 37.0001 25.0018C37.1316 25.0018 37.2619 24.9758 37.3834 24.9254C37.5049 24.875 37.6152 24.8011 37.7081 24.708L43.7081 18.708C43.8012 18.6151 43.8751 18.5048 43.9255 18.3833C43.9759 18.2618 44.0019 18.1315 44.0019 18C44.0019 17.8685 43.9759 17.7382 43.9255 17.6167C43.8751 17.4952 43.8012 17.3849 43.7081 17.292ZM39.0001 32C39.2241 32 39.4474 31.9933 39.6701 31.98C39.565 32.2751 39.4324 32.5597 39.2741 32.83L32.3481 44.644C32.0402 45.1698 31.5659 45.578 31.0001 45.804V31.732C31.3923 31.5057 31.6961 31.1529 31.8618 30.7315C32.0274 30.31 32.0452 29.8448 31.9121 29.412C33.894 31.0864 36.4056 32.0035 39.0001 32ZM28.0001 21C28.0001 23.7 28.9721 26.174 30.5881 28.088C30.1182 27.9431 29.6113 27.9764 29.1644 28.1816C28.7175 28.3868 28.3618 28.7494 28.1654 29.2002C27.9689 29.651 27.9454 30.1584 28.0994 30.6255C28.2534 31.0925 28.574 31.4864 29.0001 31.732V45.82C28.417 45.5975 27.9273 45.1826 27.6121 44.644L20.6861 32.83C20.2742 32.1271 20.0403 31.3342 20.0048 30.5203C19.9692 29.7064 20.1331 28.8961 20.4821 28.16L23.4001 22H23.0001C22.2045 22 21.4414 21.6839 20.8788 21.1213C20.3162 20.5587 20.0001 19.7956 20.0001 19V15C20.0001 14.7348 20.1055 14.4804 20.293 14.2929C20.4805 14.1054 20.7349 14 21.0001 14C21.2653 14 21.5197 14.1054 21.7072 14.2929C21.8947 14.4804 22.0001 14.7348 22.0001 15V19C22.0001 19.2652 22.1055 19.5196 22.293 19.7071C22.4805 19.8946 22.7349 20 23.0001 20H28.0441C28.0155 20.3326 28.0009 20.6662 28.0001 21Z" fill="#042B73"/>
</svg>
