<svg width="60" height="60" viewBox="0 0 60 60" fill="none" xmlns="http://www.w3.org/2000/svg">
<rect x="0.5" y="0.5" width="59" height="59" rx="29.5" fill="#D2DEE4"/>
<rect x="0.5" y="0.5" width="59" height="59" rx="29.5" stroke="#042B73"/>
<path d="M16.6654 16.666C15.7813 16.666 14.9335 17.0172 14.3083 17.6423C13.6832 18.2674 13.332 19.1153 13.332 19.9993V39.9993C13.332 40.8834 13.6832 41.7312 14.3083 42.3564C14.9335 42.9815 15.7813 43.3327 16.6654 43.3327H26.6654C27.9454 43.3327 29.1154 42.851 29.9987 42.0593C30.882 42.851 32.052 43.3327 33.332 43.3327H43.332C44.2161 43.3327 45.0639 42.9815 45.6891 42.3564C46.3142 41.7312 46.6654 40.8834 46.6654 39.9993V19.9993C46.6654 19.1153 46.3142 18.2674 45.6891 17.6423C45.0639 17.0172 44.2161 16.666 43.332 16.666H33.332C32.052 16.666 30.882 17.1477 29.9987 17.9393C29.082 17.1194 27.8953 16.666 26.6654 16.666H16.6654ZM28.332 21.666V38.3327C28.332 38.7747 28.1564 39.1986 27.8439 39.5112C27.5313 39.8238 27.1074 39.9993 26.6654 39.9993H16.6654V19.9993H26.6654C27.1074 19.9993 27.5313 20.1749 27.8439 20.4875C28.1564 20.8001 28.332 21.224 28.332 21.666ZM31.6654 38.3327V21.666C31.6654 21.224 31.841 20.8001 32.1535 20.4875C32.4661 20.1749 32.89 19.9993 33.332 19.9993H43.332V39.9993H33.332C32.89 39.9993 32.4661 39.8238 32.1535 39.5112C31.841 39.1986 31.6654 38.7747 31.6654 38.3327Z" fill="#042B73"/>
</svg>
