<svg width="60" height="60" viewBox="0 0 60 60" fill="none" xmlns="http://www.w3.org/2000/svg">
<rect x="0.5" y="0.5" width="59" height="59" rx="29.5" fill="#D2DEE4"/>
<rect x="0.5" y="0.5" width="59" height="59" rx="29.5" stroke="#042B73"/>
<path d="M14.6004 33.3357C14.269 33.3474 13.9441 33.2411 13.6838 33.0357C13.572 32.9405 13.4825 32.8218 13.4217 32.6882C13.361 32.5545 13.3304 32.4091 13.3321 32.2623C13.3321 32.0801 13.3838 31.8534 13.4871 31.5823L20.0321 14.5173C20.3321 13.7284 20.8865 13.334 21.6954 13.334C22.4565 13.334 22.9877 13.724 23.2888 14.504L29.8454 31.5807C29.9488 31.8529 30.0004 32.0795 30.0004 32.2607C30.0004 32.5684 29.8782 32.8268 29.6338 33.0357C29.38 33.2424 29.0591 33.3486 28.7321 33.334C28.1299 33.334 27.716 33.0212 27.4904 32.3957L25.6854 27.529H17.6354L15.8438 32.3957C15.6182 33.0212 15.2043 33.334 14.6021 33.334M18.3688 25.449H24.9654L21.7071 16.504H21.6238L18.3688 25.449ZM31.3188 34.549L40.4521 43.6823L47.3804 36.7556C47.6825 36.4541 47.9222 36.0959 48.0859 35.7017C48.2495 35.3075 48.3339 34.8849 48.3342 34.458C48.3345 34.0312 48.2508 33.6084 48.0877 33.214C47.9246 32.8195 47.6854 32.461 47.3838 32.159L42.8438 27.619C42.5422 27.3164 42.1838 27.0763 41.7892 26.9126C41.3946 26.7488 40.9715 26.6646 40.5443 26.6648C40.117 26.6649 39.694 26.7494 39.2995 26.9135C38.905 27.0775 38.5468 27.3178 38.2454 27.6207L31.3188 34.549ZM34.5804 28.929L31.6654 31.844V14.594C31.6519 14.261 31.7685 13.9359 31.9904 13.6873C32.0997 13.5725 32.2317 13.4819 32.3782 13.4214C32.5246 13.3608 32.682 13.3316 32.8404 13.3357C33.1838 13.3357 33.4638 13.4523 33.6804 13.6857C33.906 13.9212 34.0188 14.224 34.0188 14.594V21.3823H34.0721C34.5221 20.5701 35.1399 19.9345 35.9254 19.4757C36.7355 19.0115 37.6552 18.7732 38.5888 18.7857C40.3654 18.7857 41.7988 19.4479 42.8888 20.7723C43.9799 22.099 44.5254 23.8618 44.5254 26.0606C44.5254 26.354 44.516 26.6395 44.4971 26.9173L44.0204 26.4407C43.4793 25.8953 42.816 25.4868 42.0854 25.249C41.9799 24.029 41.6299 23.0329 41.0354 22.2607C40.3154 21.3229 39.3332 20.854 38.0888 20.854C36.8888 20.854 35.906 21.3362 35.1404 22.3007C34.3838 23.2573 34.0054 24.5107 34.0054 26.0606C34.0054 27.1707 34.1971 28.1257 34.5804 28.929ZM38.6854 45.454L29.5488 36.3173L27.6204 38.2457C27.3181 38.5473 27.0782 38.9055 26.9144 39.2999C26.7506 39.6943 26.6661 40.1171 26.6658 40.5441C26.6655 40.9712 26.7493 41.3941 26.9126 41.7887C27.0758 42.1833 27.3152 42.5419 27.6171 42.844L32.1571 47.3823C32.6961 47.9236 33.4094 48.2567 34.1704 48.3223L34.1654 48.334H43.3321C43.6636 48.334 43.9816 48.2023 44.216 47.9679C44.4504 47.7334 44.5821 47.4155 44.5821 47.084C44.5821 46.7525 44.4504 46.4345 44.216 46.2001C43.9816 45.9657 43.6636 45.834 43.3321 45.834H38.2988L38.6854 45.454Z" fill="#042B73"/>
</svg>
